<?xml version="1.0" encoding="utf-8"?>
<!-- Generator: Adobe Illustrator 26.4.1, SVG Export Plug-In . SVG Version: 6.00 Build 0)  -->
<svg version="1.1" id="レイヤー_1" xmlns="http://www.w3.org/2000/svg" xmlns:xlink="http://www.w3.org/1999/xlink" x="0px"
	 y="0px" viewBox="0 0 245 245" style="enable-background:new 0 0 245 245;" xml:space="preserve">
<style type="text/css">
	.st0{fill:#C2081F;}
</style>
<g id="レイヤー_2_00000049926739814892822630000001275131861356054401_">
	<g id="レイヤー_1-2">
		<path d="M87.3,69.9v0.5c-0.4,0-0.7,0.2-1,0.5c-0.2,0.3-0.4,0.6-0.3,1c0,0.6,0.2,0.9,0.6,0.9s0.5-0.2,0.7-0.8l0.2-0.7
			c0.2-1,0.6-1.5,1.3-1.5c0.8,0,1.4,0.7,1.4,1.4c0,0.1,0,0.1,0,0.2c0,0.5-0.2,0.9-0.5,1.3l0.3,0.2v0.4h-1.7v-0.5
			c0.4,0,0.7-0.2,1-0.5c0.2-0.3,0.3-0.6,0.3-0.9c0-0.5-0.2-0.8-0.6-0.8s-0.5,0.2-0.6,0.7l-0.2,0.9c-0.1,0.4-0.2,0.7-0.4,1
			c-0.2,0.3-0.6,0.5-1,0.4c-0.8,0-1.5-0.7-1.4-1.5c0-0.1,0-0.1,0-0.2c0-0.5,0.2-1.1,0.5-1.5l-0.4-0.2v-0.5L87.3,69.9z"/>
		<path d="M90.4,74.4v1.3h-1.9c0.4,0.2,0.6,0.7,0.6,1.1c0,0.3-0.1,0.5-0.3,0.7c-0.2,0.2-0.4,0.2-0.9,0.2h-1.2c-0.3,0-0.4,0-0.4,0.4
			v0.2H86v-1.9h0.4v0.1c0,0.3,0.1,0.4,0.4,0.4H88c0.3,0,0.4,0,0.5-0.1c0.1-0.1,0.2-0.2,0.2-0.4c0-0.2-0.1-0.5-0.3-0.6
			c-0.2-0.2-0.5-0.2-0.8-0.2h-0.8c-0.3,0-0.4,0-0.4,0.4v0.1H86v-1.9h0.4v0.2c0,0.3,0.1,0.4,0.4,0.4h2.8c0.3,0,0.4,0,0.4-0.4v-0.2
			H90.4z"/>
		<path d="M86.2,79.2v0.2c0,0.3,0.1,0.4,0.4,0.4H88c0.3,0,0.4,0,0.4-0.4v-0.2h0.4v1.4h-2.3c-0.3,0-0.4,0-0.4,0.4v0.2h-0.4v-2
			L86.2,79.2z M89.7,80.7c-0.3,0-0.5-0.2-0.5-0.5s0.2-0.5,0.5-0.5s0.5,0.2,0.5,0.5c0,0,0,0,0,0C90.2,80.5,90,80.7,89.7,80.7
			C89.7,80.7,89.7,80.7,89.7,80.7z"/>
		<path d="M86.7,82v0.2c0,0.3,0.1,0.4,0.4,0.4h1.4c0.3,0,0.4-0.1,0.4-0.4V82h0.4v1.4h-0.6c0.4,0.2,0.6,0.7,0.7,1.1
			c0,0.3-0.1,0.5-0.3,0.8c-0.3,0.2-0.6,0.3-0.9,0.2h-1.2c-0.3,0-0.4,0-0.4,0.4v0.2h-0.4v-1.9h0.4v0.1c0,0.3,0.1,0.4,0.4,0.4h1.2
			c0.3,0,0.4,0,0.5-0.1c0.1-0.1,0.2-0.2,0.2-0.4c0-0.2-0.1-0.5-0.3-0.6c-0.2-0.2-0.5-0.2-0.7-0.2h-0.8c-0.3,0-0.4,0-0.4,0.4v0.1
			h-0.4V82H86.7z"/>
		<path d="M88.4,86.8h0.4c0.1,0.6,0.4,0.8,1.2,0.9v0.4h-1.2V89h-0.5v-0.9h-1.8c-0.3,0-0.4,0.1-0.4,0.2s0.1,0.2,0.2,0.3
			c0.2,0,0.5,0,0.7,0v0.4H87c-0.3,0.1-0.7,0-1-0.1c-0.3-0.2-0.4-0.5-0.4-0.8c0-0.3,0.1-0.5,0.3-0.7c0.2-0.1,0.5-0.2,0.8-0.2h1.7
			L88.4,86.8z"/>
		<path d="M87.5,93.3c-1,0-1.8-0.7-1.9-1.7c0-1,0.7-1.8,1.7-1.9c1,0,1.8,0.7,1.9,1.7c0,0,0,0.1,0,0.1c0.1,0.9-0.6,1.7-1.5,1.8
			C87.7,93.3,87.6,93.3,87.5,93.3z M87.5,90.6c-0.8,0-1.2,0.3-1.2,0.8s0.4,0.9,1.2,0.9s1.2-0.3,1.2-0.9S88.3,90.7,87.5,90.6
			L87.5,90.6z"/>
		<path d="M88,95.3c0.5,0.4,0.6,0.7,0.6,1.1s-0.2,0.7-0.6,0.9c0.5,0.5,0.6,0.7,0.6,1.1c0,0.3-0.1,0.5-0.3,0.7
			c-0.2,0.2-0.3,0.2-0.9,0.2h-1.2c-0.3,0-0.4,0-0.4,0.4v0.2h-0.4V98h0.4v0.1c0,0.3,0.1,0.4,0.4,0.4h1.2c0.3,0,0.4,0,0.5-0.1
			c0.1-0.1,0.2-0.2,0.2-0.4c0-0.4-0.4-0.8-0.9-0.8c0,0,0,0,0,0h-1c-0.3,0-0.4,0-0.4,0.4v0.1h-0.4v-1.7h0.4v0.1
			c0,0.3,0.1,0.4,0.4,0.4h1.2c0.3,0,0.4,0,0.5-0.1c0.1-0.1,0.2-0.2,0.2-0.4c0-0.4-0.4-0.8-0.9-0.8c0,0,0,0,0,0h-1
			c-0.3,0-0.4,0-0.4,0.4v0.1h-0.4V94h0.4v0.2c0,0.3,0.1,0.4,0.4,0.4h1.4c0.3,0,0.4,0,0.4-0.4V94h0.4v1.4L88,95.3z"/>
		<path d="M86.4,100.9v0.2c0,0.3,0.1,0.4,0.4,0.4h1.4c0.3,0,0.4-0.1,0.4-0.4v-0.2h0.4v1.4h-2.3c-0.3,0-0.4,0-0.4,0.4v0.2H86v-2
			L86.4,100.9z M90,102.3c-0.3,0-0.5-0.2-0.5-0.5c0,0,0,0,0,0c0-0.3,0.2-0.5,0.5-0.5s0.5,0.2,0.5,0.5
			C90.5,102.1,90.3,102.3,90,102.3C90,102.3,90,102.3,90,102.3z"/>
		<path d="M86.2,105.3v0.1c0,0.3,0.1,0.5,0.4,0.6c0,0,0,0,0,0l3.5,1.2v0.9l-3.5,1.3c-0.4,0.1-0.4,0.2-0.4,0.5v0.1h-0.5v-2.3h0.5v0.4
			c0,0.3,0,0.4,0.2,0.4c0.1,0,0.1,0,0.2-0.1l0.5-0.2v-1.5l-0.6-0.2c-0.1,0-0.1,0-0.2-0.1c-0.1,0-0.2,0.1-0.2,0.4v0.3h-0.5v-2.1H86.2
			z M89.2,107.6l-1.5-0.5v1.1L89.2,107.6z"/>
		<path d="M86.5,112.7v-2.1H87v0.2c0,0.3,0.1,0.4,0.4,0.4h1.4c0.3,0,0.4,0,0.4-0.4v-0.2h0.4v1.4h-0.5c0.3,0.1,0.6,0.5,0.6,0.8
			c0,0.4-0.3,0.7-0.7,0.8c0,0,0,0-0.1,0c-0.3,0-0.5-0.2-0.6-0.5c0,0,0,0,0,0c0-0.2,0.1-0.4,0.4-0.4c0,0,0,0,0,0
			c0.2,0,0.3,0.1,0.4,0.4c0-0.1,0.1-0.2,0.1-0.3c0-0.2-0.2-0.4-0.3-0.5c-0.2-0.2-0.5-0.2-0.8-0.2h-0.8c-0.3,0-0.4,0-0.4,0.4v0.3
			L86.5,112.7z"/>
		<path d="M88.6,114.6h0.4c0.1,0.6,0.4,0.8,1.2,0.9v0.5h-1.2v0.9h-0.5V116h-1.8c-0.3,0-0.4,0.1-0.4,0.2c0,0.1,0.1,0.2,0.2,0.3
			c0,0,0,0,0,0c0.2,0,0.5,0,0.7,0v0.4h-0.2c-0.3,0-0.6,0-0.9-0.2c-0.3-0.2-0.5-0.5-0.4-0.8c0-0.3,0.1-0.5,0.3-0.7
			c0.2-0.1,0.5-0.2,0.8-0.2h1.7L88.6,114.6z"/>
		<path d="M86.2,120.5v0.3c0,0.4,0.1,0.4,0.4,0.4h2.6c0.4,0,0.4,0,0.4-0.4v-0.3h0.5v4.1h-1.8v-0.5c1.1,0,1.3-0.2,1.3-1.2v-0.8h-1.4
			v0.1c0,0.6,0.1,0.6,0.8,0.7v0.5h-2.2V123c0.8,0,0.9-0.2,0.9-0.7v-0.1h-1.1c-0.4,0-0.4,0.1-0.4,0.4v0.3h-0.5v-2.4L86.2,120.5z"/>
		<path d="M87.1,128c-0.4,0-0.7-0.2-0.9-0.5c-0.2-0.3-0.3-0.6-0.3-1c0-0.9,0.6-1.6,1.5-1.6c0.1,0,0.1,0,0.2,0
			c0.9-0.1,1.6,0.6,1.7,1.5c0,0.1,0,0.1,0,0.2c0,0.4-0.1,0.8-0.5,1.1c-0.4,0.3-0.8,0.4-1.3,0.4v-2.2c-0.3,0-0.5,0.1-0.8,0.2
			c-0.2,0.1-0.3,0.4-0.3,0.6c0,0.2,0,0.4,0.2,0.6c0.1,0.1,0.3,0.2,0.5,0.3V128z M87.9,127.2c0.6-0.1,0.8-0.2,0.8-0.6
			s-0.2-0.6-0.8-0.7V127.2z"/>
		<path d="M86.7,128.7v0.5c-0.3,0-0.6,0.2-0.8,0.5c-0.1,0.2-0.1,0.4-0.1,0.5c0,0.3,0.2,0.6,0.4,0.6s0.3-0.2,0.4-0.6l0.1-0.5
			c0.2-0.7,0.5-1,1-1s1,0.5,1,1.2c0,0.3-0.1,0.7-0.3,0.9l0.2,0.1v0.4h-1.2V131c0.2-0.1,0.4-0.2,0.5-0.3c0.1-0.2,0.2-0.4,0.2-0.6
			c0-0.3-0.1-0.5-0.4-0.5s-0.3,0.1-0.3,0.4l-0.1,0.6c-0.2,0.8-0.5,1.1-1,1.1s-1-0.5-1-1.3c0-0.4,0.1-0.8,0.3-1.1l-0.3-0.1v-0.4
			L86.7,128.7z"/>
		<path d="M88.6,132h0.4c0.1,0.6,0.4,0.8,1.2,0.9v0.4h-1.2v0.9h-0.5v-0.9h-1.8c-0.3,0-0.4,0.1-0.4,0.2c0,0.1,0.1,0.3,0.2,0.3
			c0,0,0,0,0,0c0.2,0,0.5,0,0.7,0v0.4h-0.2c-0.3,0-0.6,0-0.9-0.1c-0.3-0.2-0.4-0.5-0.4-0.8c0-0.3,0.1-0.5,0.3-0.7
			c0.2-0.1,0.5-0.2,0.8-0.2h1.7L88.6,132z"/>
		<path d="M86.2,135.1v0.2c0,0.3,0.1,0.4,0.4,0.4H88c0.3,0,0.4-0.1,0.4-0.4v-0.2h0.4v1.4h-2.3c-0.3,0-0.4,0.1-0.4,0.4v0.2h-0.4v-2
			H86.2z M89.7,136.6c-0.3,0-0.5-0.2-0.5-0.5s0.2-0.5,0.5-0.5s0.5,0.2,0.5,0.5c0,0,0,0,0,0C90.2,136.4,90,136.6,89.7,136.6
			C89.7,136.6,89.7,136.6,89.7,136.6z"/>
		<path d="M88.6,138.1c0.2-0.1,0.3-0.2,0.3-0.4v-0.2h0.4v1.7h-0.4v-0.1c0-0.2,0-0.3-0.2-0.3c-0.1,0-0.2,0-0.3,0.1l-1.4,0.5l1.5,0.5
			c0.1,0,0.1,0,0.2,0c0.1,0,0.2-0.1,0.2-0.3v-0.2h0.4v1.5h-0.4V141c0-0.2-0.1-0.3-0.4-0.4l-2.3-0.8V139L88.6,138.1z"/>
		<path d="M87.1,145.4c-0.3,0-0.6,0-0.8-0.1c-0.3-0.1-0.5-0.4-0.4-0.7c0-0.3,0.2-0.6,0.5-0.7c-0.3-0.2-0.5-0.6-0.5-1.1
			c0-0.5,0.3-0.9,0.8-0.9c0,0,0.1,0,0.1,0c0.3,0,0.6,0.2,0.8,0.5c0.2,0.3,0.3,0.6,0.3,0.9c0.1,0.4,0.2,0.6,0.5,0.6s0.5-0.2,0.5-0.7
			c0-0.2-0.1-0.4-0.2-0.6c0,0.3-0.1,0.4-0.4,0.4c-0.2,0-0.4-0.2-0.4-0.4c0,0,0,0,0,0c0-0.3,0.2-0.5,0.5-0.5c0,0,0,0,0.1,0
			c0.5,0,0.8,0.5,0.8,1.3c0,0.3-0.1,0.7-0.2,1c-0.2,0.3-0.4,0.3-1,0.3h-1.3c-0.2,0-0.2,0-0.2,0.2s0.2,0.2,0.7,0.2h0.1V145.4z
			 M87.6,143.8c-0.1-0.1-0.1-0.2-0.2-0.3l-0.1-0.3c-0.1-0.2-0.3-0.4-0.5-0.4c-0.2,0-0.4,0.1-0.4,0.3c0,0,0,0.1,0,0.1
			c0,0.2,0.1,0.4,0.2,0.5c0.2,0.2,0.4,0.2,0.6,0.2L87.6,143.8z"/>
		<path d="M86.8,147.7c-0.3,0-0.4,0.1-0.4,0.4v0.2H86v-2h0.4v0.2c0,0.3,0.1,0.4,0.4,0.4h2.8c0.3,0,0.4-0.1,0.4-0.4v-0.2h0.4v1.4
			L86.8,147.7z"/>
		<path d="M86,151.1c1,0,1.5,0.3,2,1.6c0.1,0.2,0.2,0.4,0.4,0.6c0.1,0.1,0.3,0.2,0.5,0.1c0.4,0,0.8-0.4,0.8-0.8c0,0,0-0.1,0-0.1
			c0-0.2-0.1-0.4-0.2-0.6c-0.1-0.1-0.2-0.2-0.3-0.2c0,0.1,0,0.2,0,0.2c0,0.2-0.2,0.4-0.4,0.4c0,0,0,0,0,0c-0.3,0-0.5-0.2-0.5-0.5
			c0,0,0,0,0,0c0-0.4,0.3-0.6,0.6-0.6c0,0,0,0,0,0c0.3,0,0.6,0.2,0.8,0.4c0.3,0.3,0.4,0.7,0.4,1.1c0,0.5-0.1,0.9-0.4,1.3
			c-0.2,0.2-0.6,0.4-0.9,0.4c-0.3,0-0.5-0.1-0.7-0.3c-0.3-0.3-0.5-0.6-0.5-1c-0.2-0.9-0.4-1.2-0.8-1.5c0.1,0.2,0.2,0.3,0.2,0.5
			c0,0.3-0.1,0.6-0.1,0.9c0,0.2-0.1,0.4-0.1,0.5c0,0.2,0.1,0.3,0.2,0.4c0.1,0.1,0.2,0.1,0.6,0.1v0.4c-0.4,0-0.8,0-1.1-0.2
			c-0.3-0.2-0.5-0.5-0.4-0.8c0-0.3,0.1-0.5,0.2-0.8c0.1-0.2,0.2-0.4,0.3-0.5c0.1-0.1,0.1-0.2,0.1-0.4c0-0.2-0.1-0.3-0.4-0.4
			L86,151.1z"/>
		<path d="M87.4,159.3c-1-0.1-1.8-1.1-1.6-2.1s1.1-1.8,2.1-1.6c0.9,0.1,1.6,0.9,1.6,1.9c0,1.1-0.9,1.9-2,1.9
			C87.6,159.3,87.5,159.3,87.4,159.3z M87.4,156.6c-1.1,0-1.6,0.3-1.6,0.8s0.5,0.8,1.6,0.8s1.6-0.3,1.6-0.8S88.6,156.6,87.4,156.6
			L87.4,156.6z"/>
		<path d="M86,159.9c1,0,1.5,0.3,2,1.6c0.1,0.2,0.2,0.4,0.4,0.6c0.1,0.1,0.3,0.2,0.5,0.2c0.4,0,0.8-0.4,0.8-0.8c0,0,0,0,0-0.1
			c0-0.2-0.1-0.4-0.2-0.6c-0.1-0.1-0.2-0.2-0.3-0.2c0,0.1,0,0.2,0,0.2c0,0.2-0.2,0.4-0.4,0.4c0,0,0,0,0,0c-0.3,0-0.5-0.2-0.5-0.5
			c0,0,0,0,0-0.1c0-0.4,0.3-0.6,0.7-0.6c0,0,0,0,0,0c0.3,0,0.6,0.2,0.8,0.4c0.3,0.3,0.4,0.7,0.4,1.1c0,0.5-0.1,0.9-0.4,1.3
			c-0.2,0.2-0.6,0.4-0.9,0.4c-0.3,0-0.5-0.1-0.7-0.2c-0.3-0.3-0.4-0.6-0.5-1c-0.2-0.9-0.4-1.2-0.8-1.5c0.1,0.2,0.2,0.3,0.2,0.5
			c0,0.3-0.1,0.6-0.1,0.9c0,0.2-0.1,0.4-0.1,0.5c0,0.2,0.1,0.3,0.2,0.4c0.2,0.1,0.4,0.1,0.6,0.1v0.4c-0.4,0-0.8,0-1.1-0.2
			c-0.3-0.2-0.5-0.4-0.4-0.8c0-0.3,0.1-0.5,0.2-0.8c0.1-0.2,0.2-0.4,0.3-0.5c0.1-0.1,0.1-0.2,0.1-0.4c0-0.2-0.1-0.3-0.4-0.4
			L86,159.9z"/>
		<path d="M87,164.6v0.3c0,0.4,0,0.5,0.4,0.5h2.1v-0.8H90c0.1,0.7,0.2,0.9,0.6,1.1v0.5h-3.3c-0.3,0-0.4,0-0.4,0.5v0.3h-0.5v-2.5H87z
			"/>
		<path d="M77.2,69.9v0.5c-0.4,0-0.7,0.2-1,0.5c-0.2,0.3-0.4,0.6-0.3,1c0,0.6,0.2,0.9,0.6,0.9s0.5-0.2,0.7-0.8l0.2-0.7
			c0.2-1,0.6-1.5,1.3-1.5c0.8,0,1.4,0.6,1.4,1.4c0,0.1,0,0.1,0,0.2c0,0.5-0.2,0.9-0.5,1.3l0.3,0.2v0.4h-1.7v-0.5
			c0.4,0,0.7-0.2,1-0.5c0.2-0.3,0.3-0.6,0.3-0.9c0-0.5-0.2-0.8-0.6-0.8s-0.5,0.2-0.6,0.7L78,72.2c-0.1,0.4-0.2,0.7-0.4,1
			c-0.2,0.3-0.6,0.5-1,0.4c-0.8,0-1.5-0.7-1.4-1.5c0-0.1,0-0.1,0-0.2c0-0.5,0.2-1.1,0.5-1.5l-0.4-0.2v-0.5L77.2,69.9z"/>
		<path d="M79.2,74.7v1.3h-1.9c0.4,0.2,0.6,0.7,0.6,1.1c0,0.3-0.1,0.5-0.3,0.8c-0.2,0.2-0.4,0.2-0.9,0.2h-1.2c-0.3,0-0.4,0-0.4,0.4
			v0.2h-0.4v-1.9h0.4V77c0,0.3,0.1,0.4,0.4,0.4h1.2c0.3,0,0.4,0,0.5-0.1c0.1-0.1,0.2-0.2,0.2-0.4c0-0.2-0.1-0.5-0.3-0.6
			c-0.2-0.2-0.5-0.2-0.8-0.2h-0.8c-0.3,0-0.4,0-0.4,0.4v0.1h-0.4v-1.9h0.4v0.2c0,0.3,0.1,0.4,0.4,0.4h2.8c0.3,0,0.4-0.1,0.4-0.4
			v-0.2H79.2z"/>
		<path d="M75,79.3v0.2c0,0.3,0.1,0.4,0.4,0.4h1.4c0.3,0,0.4,0,0.4-0.4v-0.2h0.4v1.4h-2.3c-0.3,0-0.4,0-0.4,0.4v0.2h-0.4v-2L75,79.3
			z M78.6,80.8c-0.3,0-0.5-0.2-0.5-0.5c0-0.3,0.2-0.5,0.5-0.5s0.5,0.2,0.5,0.5S78.8,80.8,78.6,80.8L78.6,80.8z"/>
		<path d="M75.2,82.1v0.2c0,0.3,0.1,0.4,0.4,0.4h1.4c0.3,0,0.4,0,0.4-0.4v-0.2h0.4v1.4h-0.6c0.5,0.4,0.7,0.7,0.7,1.1
			c0,0.3-0.1,0.5-0.3,0.7c-0.2,0.2-0.4,0.2-0.9,0.2h-1.2c-0.3,0-0.4,0-0.4,0.4v0.2h-0.4v-1.9h0.4v0.1c0,0.3,0.1,0.4,0.4,0.4h1.2
			c0.3,0,0.4,0,0.5-0.1c0.1-0.1,0.2-0.2,0.2-0.4c0-0.2-0.1-0.5-0.3-0.6c-0.2-0.2-0.5-0.2-0.7-0.2h-0.8c-0.3,0-0.4,0-0.4,0.4V84h-0.4
			v-1.9H75.2z"/>
		<path d="M77.7,87.2h0.4c0.1,0.6,0.4,0.8,1.2,0.9v0.4h-1.2v0.8h-0.5v-0.9h-1.8c-0.3,0-0.4,0.1-0.4,0.2c0,0.1,0.1,0.2,0.2,0.3
			c0,0,0,0,0,0c0.2,0,0.5,0,0.7,0v0.4h-0.2c-0.3,0-0.6,0-0.9-0.1c-0.3-0.2-0.5-0.5-0.4-0.8c0-0.3,0.1-0.5,0.3-0.7
			c0.2-0.1,0.5-0.2,0.8-0.2h1.7L77.7,87.2z"/>
		<path d="M75.8,93.4c-1,0-1.8-0.7-1.8-1.7s0.7-1.8,1.7-1.8s1.8,0.7,1.8,1.7c0,0,0,0.1,0,0.1c0.1,0.9-0.6,1.7-1.5,1.8
			C75.9,93.4,75.9,93.4,75.8,93.4z M75.8,90.8c-0.8,0-1.2,0.3-1.2,0.9s0.4,0.9,1.2,0.9s1.2-0.3,1.2-0.9S76.6,90.8,75.8,90.8
			L75.8,90.8z"/>
		<path d="M77.4,95.4c0.5,0.4,0.6,0.7,0.6,1.1s-0.2,0.7-0.6,0.8c0.5,0.5,0.6,0.7,0.6,1.1c0,0.3-0.1,0.5-0.3,0.7
			c-0.2,0.2-0.3,0.2-0.9,0.2h-1.2c-0.3,0-0.4,0-0.4,0.4v0.2h-0.4v-1.8h0.4v0.1c0,0.3,0.1,0.4,0.4,0.4h1.2c0.3,0,0.4,0,0.5-0.1
			c0.1-0.1,0.2-0.2,0.2-0.4c0-0.4-0.4-0.8-0.9-0.7c0,0,0,0,0,0h-1c-0.3,0-0.4,0-0.4,0.4v0.1h-0.4v-1.7h0.4v0.1
			c0,0.3,0.1,0.4,0.4,0.4h1.2c0.3,0,0.4,0,0.5-0.1c0.1-0.1,0.2-0.2,0.2-0.4c0-0.4-0.4-0.8-0.9-0.7c0,0,0,0,0,0h-1
			c-0.3,0-0.4,0-0.4,0.4v0.1h-0.4v-1.8h0.4v0.2c0,0.3,0.1,0.4,0.4,0.4h1.4c0.3,0,0.4,0,0.4-0.4v-0.2h0.4v1.4L77.4,95.4z"/>
		<path d="M74.7,100.7v0.3c0,0.3,0.1,0.4,0.4,0.4h1.4c0.3,0,0.4,0,0.4-0.4v-0.2h0.4v1.4h-2.3c-0.3,0-0.4,0-0.4,0.4v0.2h-0.4v-2
			L74.7,100.7z M78.2,102.2c-0.3,0-0.5-0.2-0.5-0.5c0,0,0,0,0,0c0-0.3,0.2-0.5,0.5-0.5s0.5,0.2,0.5,0.5
			C78.8,102,78.5,102.2,78.2,102.2C78.3,102.2,78.3,102.2,78.2,102.2z"/>
		<path d="M76.4,103.6v1.8h-0.7v-1.8H76.4z"/>
		<path d="M76.1,109.3c-0.4,0-0.7-0.1-1-0.3c-0.3-0.3-0.5-0.7-0.4-1.1c0-0.8,0.6-1.6,1.5-1.6c0.1,0,0.1,0,0.2,0
			c0.9,0,1.7,0.7,1.7,1.5c0,0.1,0,0.1,0,0.2c0,0.8-0.4,1.3-1,1.3c-0.3,0-0.5-0.2-0.6-0.5c0,0,0,0,0-0.1c0-0.2,0.2-0.5,0.4-0.5
			c0,0,0,0,0,0c0.2,0,0.4,0.1,0.4,0.4c0.2-0.2,0.2-0.4,0.2-0.6c0-0.6-0.4-0.9-1.2-0.9s-1.1,0.3-1.1,0.8s0.2,0.7,0.8,0.8L76.1,109.3z
			"/>
		<path d="M79.2,110v1.3h-1.9c0.4,0.2,0.6,0.7,0.7,1.1c0,0.3-0.1,0.5-0.3,0.7c-0.2,0.2-0.4,0.2-0.9,0.2h-1.2c-0.3,0-0.4,0-0.4,0.4
			v0.2h-0.4v-1.9h0.4v0.1c0,0.3,0.1,0.4,0.4,0.4h1.2c0.3,0,0.4,0,0.5-0.1c0.1-0.1,0.2-0.2,0.2-0.4c0-0.2-0.1-0.5-0.3-0.6
			c-0.2-0.2-0.5-0.2-0.8-0.2h-0.8c-0.3,0-0.4,0-0.4,0.4v0.1h-0.4V110h0.4v0.2c0,0.3,0.1,0.4,0.4,0.4h2.8c0.3,0,0.4,0,0.4-0.4V110
			H79.2z"/>
		<path d="M76.1,118.2c-1-0.1-1.7-0.9-1.6-1.9c0.1-0.9,0.8-1.6,1.6-1.6c1,0.1,1.7,0.9,1.6,1.9C77.6,117.4,77,118.1,76.1,118.2z
			 M76.1,115.6c-0.8,0-1.2,0.3-1.2,0.9s0.4,0.8,1.2,0.8s1.2-0.3,1.2-0.8S76.9,115.6,76.1,115.6L76.1,115.6z"/>
		<path d="M75.6,124.5v0.3c0,0.4,0,0.4,0.4,0.4h2.9l-3.8-1.4v-0.4l3.8-1.3H76c-0.4,0-0.4,0.1-0.4,0.4v0.3h-0.5v-2.1h0.5v0.2
			c0,0.4,0,0.4,0.4,0.4h2.6c0.4,0,0.4,0,0.4-0.4v-0.2h0.5v2.1l-2.9,1l2.9,1.1v2H79v-0.3c0-0.4,0-0.4-0.4-0.4H76
			c-0.4,0-0.4,0-0.4,0.4v0.3h-0.5v-2.3L75.6,124.5z"/>
		<path d="M75,127.6v0.2c0,0.3,0.1,0.4,0.4,0.4h1.4c0.3,0,0.4,0,0.4-0.4v-0.2h0.4v1.4h-2.3c-0.3,0-0.4,0.1-0.4,0.4v0.2h-0.4v-2H75z
			 M78.5,129c-0.3,0-0.5-0.2-0.5-0.5s0.2-0.5,0.5-0.5c0.3,0,0.5,0.2,0.5,0.5C79,128.8,78.8,129,78.5,129C78.5,129,78.5,129,78.5,129
			z"/>
		<path d="M77.3,131.1c0.3-0.1,0.4-0.2,0.4-0.5v-0.2h0.4v1.9h-0.4v-0.2c0-0.1,0-0.2-0.2-0.2c-0.1,0-0.1,0-0.2,0l-1.4,0.6l1.4,0.6
			h0.2c0.1,0,0.2-0.1,0.2-0.3v-0.2h0.4v1.6h-0.4V134c0-0.2-0.1-0.3-0.5-0.5l-1.8-0.8c-1.4-0.6-1.8-0.9-1.8-1.5
			c0-0.5,0.3-0.9,0.8-0.9c0,0,0,0,0.1,0c0.3,0,0.6,0.2,0.6,0.5c0,0,0,0,0,0c0,0.2-0.2,0.4-0.4,0.5c0,0,0,0,0,0
			c-0.3,0-0.4-0.2-0.4-0.5c-0.1,0.1-0.2,0.2-0.2,0.3c0,0.4,0.2,0.6,1,0.9L77.3,131.1z"/>
		<path d="M75.7,138.2c-0.3,0-0.6,0-0.8-0.1c-0.3-0.1-0.5-0.4-0.4-0.7c0-0.3,0.2-0.6,0.5-0.7c-0.3-0.2-0.5-0.6-0.5-1.1
			c-0.1-0.5,0.2-0.9,0.7-1c0,0,0.1,0,0.1,0c0.3,0,0.6,0.2,0.8,0.5c0.1,0.3,0.3,0.6,0.3,0.9c0.1,0.4,0.2,0.6,0.5,0.6s0.5-0.2,0.5-0.7
			c0-0.2-0.1-0.4-0.2-0.6c0,0.3-0.1,0.4-0.4,0.4c-0.2,0-0.4-0.2-0.4-0.4c0,0,0,0,0,0c0-0.3,0.2-0.5,0.5-0.5c0,0,0,0,0.1,0
			c0.5,0,0.8,0.5,0.8,1.3c0,0.3-0.1,0.7-0.2,1c-0.2,0.3-0.4,0.3-1,0.3h-1.3c-0.2,0-0.2,0.1-0.2,0.2s0.2,0.2,0.7,0.2h0.1V138.2z
			 M76.2,136.6c-0.1-0.1-0.1-0.3-0.2-0.3l-0.1-0.3c-0.1-0.2-0.3-0.4-0.5-0.4c-0.2,0-0.4,0.1-0.4,0.3c0,0,0,0,0,0.1
			c0,0.2,0.1,0.4,0.2,0.5c0.2,0.2,0.4,0.2,0.6,0.2L76.2,136.6z"/>
		<path d="M75.5,138.9l2.2,2v-0.7c0-0.6-0.2-0.7-0.9-0.7V139h1.4v2.8h-0.5l-2.2-2v0.6c0,0.8,0.1,0.9,1,1v0.5h-1.4v-2.9H75.5z"/>
		<path d="M76.2,146.3c-0.3,0-0.6,0-0.8-0.1c-0.3-0.1-0.5-0.4-0.4-0.7c0-0.3,0.2-0.6,0.5-0.7c-0.3-0.2-0.5-0.7-0.5-1.1
			c0-0.5,0.3-0.9,0.8-0.9c0,0,0.1,0,0.1,0c0.3,0,0.6,0.2,0.8,0.5c0.1,0.3,0.2,0.6,0.3,0.9c0.1,0.4,0.2,0.6,0.5,0.6s0.5-0.2,0.5-0.7
			c0-0.2-0.1-0.4-0.2-0.6c0,0.3-0.1,0.4-0.4,0.4c-0.2,0-0.4-0.2-0.4-0.4c0,0,0,0,0,0c0-0.3,0.2-0.5,0.5-0.5c0,0,0,0,0.1,0
			c0.5,0,0.8,0.5,0.8,1.3c0,0.3-0.1,0.7-0.2,1c-0.2,0.3-0.4,0.3-1,0.3h-1.3c-0.2,0-0.2,0-0.2,0.2s0.2,0.2,0.7,0.2h0.1V146.3z
			 M76.7,144.8l-0.2-0.3l-0.1-0.3c-0.1-0.2-0.3-0.4-0.5-0.4c-0.2,0-0.4,0.1-0.4,0.3c0,0,0,0,0,0.1c0,0.2,0.1,0.4,0.2,0.5
			c0.2,0.2,0.4,0.2,0.6,0.2L76.7,144.8z"/>
		<path d="M77.2,149.4c0.1,0.1,0.1,0.1,0.2,0.1s0.1-0.1,0.1-0.2v-0.4h0.4v2h-0.4v-0.1c0-0.2-0.1-0.4-0.2-0.6l-0.5-0.6l-1.1,0.8
			c-0.2,0.1-0.4,0.4-0.4,0.6v0.1h-0.4v-1.9h0.4v0.2c0,0.1,0,0.2,0.1,0.2c0.1,0,0.1,0,0.2-0.1l0.8-0.5l-0.5-0.6h-0.2
			c-0.3,0-0.4,0-0.4,0.4v0.1h-0.4V147h0.4v0.2c0,0.3,0.1,0.4,0.4,0.4h2.8c0.3,0,0.4,0,0.4-0.4V147h0.4v1.4h-2.8L77.2,149.4z"/>
		<path d="M74.7,151.8v0.2c0,0.3,0.1,0.4,0.4,0.4h1.4c0.3,0,0.4,0,0.4-0.4v-0.2h0.4v1.4h-2.3c-0.3,0-0.4,0-0.4,0.4v0.2h-0.4v-2
			L74.7,151.8z M78.2,153.3c-0.3,0-0.5-0.2-0.5-0.5c0-0.3,0.2-0.5,0.5-0.5c0,0,0,0,0,0c0.3,0,0.5,0.2,0.5,0.5S78.5,153.3,78.2,153.3
			L78.2,153.3z"/>
		<path d="M79,157.6v2.4h-0.5v-0.2c0-0.4,0-0.4-0.4-0.4h-2.1c-0.6,0-0.9-0.1-1.2-0.3c-0.3-0.3-0.4-0.7-0.4-1.1
			c0-0.8,0.5-1.4,1.1-1.4c0.3,0,0.6,0.2,0.6,0.5c0,0,0,0.1,0,0.1c0,0.3-0.2,0.5-0.5,0.5c0,0,0,0-0.1,0c-0.3,0-0.4-0.1-0.5-0.4
			c-0.1,0.1-0.2,0.3-0.2,0.6c0,0.2,0.1,0.4,0.2,0.5c0.1,0.1,0.3,0.1,0.7,0.1h2.2c0.4,0,0.4,0,0.4-0.4v-0.3L79,157.6z"/>
		<path d="M76.8,164.1c-0.3,0-0.6,0-0.8-0.1c-0.3-0.1-0.5-0.4-0.4-0.7c0-0.3,0.2-0.6,0.5-0.7c-0.3-0.3-0.5-0.7-0.5-1.1
			c-0.1-0.5,0.2-0.9,0.7-1c0,0,0.1,0,0.1,0c0.3,0,0.6,0.2,0.8,0.5c0.1,0.3,0.2,0.6,0.3,0.9c0.1,0.4,0.2,0.6,0.5,0.6s0.5-0.2,0.5-0.7
			c0-0.2-0.1-0.4-0.2-0.6c0,0.3-0.1,0.4-0.4,0.4c-0.2,0-0.4-0.2-0.4-0.4c0,0,0,0,0,0c0-0.3,0.2-0.5,0.5-0.5c0,0,0,0,0.1,0
			c0.5,0,0.8,0.5,0.8,1.3c0,0.3-0.1,0.7-0.2,1c-0.2,0.3-0.4,0.3-0.9,0.3h-1.4c-0.2,0-0.2,0.1-0.2,0.2s0.2,0.2,0.7,0.2h0.1V164.1z
			 M77.2,162.6l-0.2-0.3l-0.1-0.3c-0.1-0.2-0.3-0.4-0.5-0.4c-0.2,0-0.4,0.1-0.4,0.3c0,0,0,0,0,0.1c0,0.2,0.1,0.4,0.2,0.5
			c0.2,0.2,0.4,0.2,0.6,0.2L77.2,162.6z"/>
		<path d="M78.7,164.6v1.4h-0.6c0.4,0.2,0.7,0.6,0.6,1c0,0.9-0.6,1.4-1.7,1.4s-1.7-0.5-1.7-1.4c0-0.4,0.2-0.8,0.6-1H75
			c-0.3,0-0.4,0-0.4,0.4v0.3h-0.4v-2h0.4v0.2c0,0.3,0.1,0.4,0.4,0.4h2.9c0.3,0,0.4,0,0.4-0.4v-0.2L78.7,164.6z M77.2,166
			c-0.7,0-1.1,0.3-1.1,0.8s0.4,0.7,1.1,0.7s1.1-0.2,1.1-0.7S77.9,166,77.2,166z"/>
		<path d="M76,172.3c-0.3,0-0.6,0-0.8-0.1c-0.3-0.1-0.5-0.4-0.4-0.7c0-0.3,0.2-0.6,0.5-0.7c-0.3-0.2-0.5-0.6-0.5-1.1
			c0-0.5,0.3-0.9,0.8-0.9c0,0,0.1,0,0.1,0c0.3,0,0.6,0.2,0.8,0.5c0.1,0.3,0.2,0.6,0.3,0.9c0.1,0.4,0.2,0.6,0.5,0.6s0.5-0.2,0.5-0.7
			c0-0.2-0.1-0.4-0.2-0.6c0,0.3-0.1,0.4-0.4,0.4c-0.2,0-0.4-0.2-0.4-0.4c0,0,0,0,0-0.1c0-0.3,0.2-0.5,0.5-0.5c0,0,0,0,0.1,0
			c0.5,0,0.8,0.5,0.8,1.3c0,0.3-0.1,0.7-0.2,1c-0.2,0.3-0.4,0.3-0.9,0.3h-1.4c-0.2,0-0.2,0.1-0.2,0.2s0.2,0.2,0.7,0.2H76V172.3z
			 M76.5,170.7c-0.1-0.1-0.1-0.3-0.2-0.3l-0.1-0.3c-0.1-0.2-0.3-0.4-0.5-0.4c-0.2,0-0.4,0.1-0.4,0.3c0,0,0,0,0,0.1
			c0,0.2,0.1,0.4,0.2,0.5c0.2,0.2,0.4,0.2,0.6,0.2L76.5,170.7z"/>
		<path d="M75.2,172.4v0.2c0,0.3,0.1,0.4,0.4,0.4h1.4c0.3,0,0.4-0.1,0.4-0.4v-0.2h0.4v1.4h-0.6c0.4,0.2,0.6,0.7,0.7,1.1
			c0,0.3-0.1,0.5-0.3,0.7c-0.2,0.2-0.4,0.2-0.9,0.2h-1.2c-0.3,0-0.4,0.1-0.4,0.4v0.2h-0.4v-1.9h0.4v0.1c0,0.3,0.1,0.4,0.4,0.4h1.2
			c0.3,0,0.4,0,0.5-0.1c0.1-0.1,0.2-0.2,0.2-0.4c0-0.2-0.1-0.5-0.3-0.6c-0.2-0.2-0.5-0.2-0.7-0.2h-0.8c-0.3,0-0.4,0-0.4,0.4v0.1
			h-0.4v-1.9H75.2z"/>
		<path d="M62.8,69.9v0.3c0,0.4,0,0.4,0.4,0.4h2.6c0.4,0,0.4,0,0.4-0.4v-0.3h0.5V74h-1.8v-0.5c1.1,0,1.3-0.2,1.3-1.2v-0.8h-1.4v0.1
			c0,0.6,0.1,0.6,0.8,0.7v0.5h-2.2v-0.5c0.8,0,0.9-0.1,0.9-0.7v-0.1h-1.2c-0.4,0-0.4,0-0.4,0.4v0.3h-0.5v-2.3H62.8z"/>
		<path d="M63.1,76.8v-2.1h0.5v0.2c0,0.3,0.1,0.4,0.4,0.4h1.4c0.3,0,0.4,0,0.4-0.4v-0.2h0.4v1.4h-0.5c0.3,0.2,0.5,0.5,0.6,0.8
			c0,0.4-0.3,0.8-0.7,0.8c0,0,0,0,0,0c-0.3,0-0.5-0.2-0.6-0.5c0,0,0,0,0,0c0-0.2,0.1-0.4,0.3-0.4c0,0,0,0,0.1,0
			c0.2,0,0.4,0.1,0.4,0.4c0-0.1,0.1-0.2,0.1-0.3c0-0.2-0.2-0.4-0.3-0.5c-0.2-0.1-0.5-0.2-0.8-0.2h-0.8c-0.3,0-0.4,0-0.4,0.4v0.3
			H63.1z"/>
		<path d="M64.6,81.4c-1,0.1-1.8-0.7-1.9-1.7s0.7-1.8,1.7-1.9s1.8,0.7,1.9,1.7c0,0,0,0.1,0,0.1c0.1,0.9-0.6,1.7-1.5,1.8
			C64.8,81.4,64.7,81.4,64.6,81.4z M64.6,78.8c-0.8,0-1.2,0.3-1.2,0.9s0.4,0.8,1.2,0.8c0.8,0,1.2-0.3,1.2-0.8S65.4,78.8,64.6,78.8
			L64.6,78.8z"/>
		<path d="M65.4,83.7c0.5,0.4,0.6,0.7,0.6,1.1s-0.2,0.7-0.6,0.9c0.5,0.5,0.6,0.7,0.6,1.1c0,0.3-0.1,0.5-0.2,0.7
			c-0.2,0.2-0.3,0.2-0.9,0.2h-1.2c-0.3,0-0.4,0-0.4,0.4v0.2h-0.4v-1.8h0.4v0.1c0,0.3,0.1,0.4,0.4,0.4h1.2c0.3,0,0.4,0,0.5-0.1
			c0.1-0.1,0.2-0.2,0.2-0.4c0-0.4-0.4-0.8-0.8-0.8c0,0,0,0,0,0h-1c-0.3,0-0.4,0.1-0.4,0.4v0.1h-0.4v-1.7h0.4v0.1
			c0,0.3,0.1,0.4,0.4,0.4h1.2c0.3,0,0.4,0,0.5-0.1c0.1-0.1,0.2-0.2,0.2-0.4c0-0.4-0.4-0.8-0.8-0.8c0,0,0,0,0,0h-1
			c-0.3,0-0.4,0.1-0.4,0.4v0.1h-0.4v-1.8h0.4v0.2c0,0.3,0.1,0.4,0.4,0.4h1.4c0.3,0,0.4,0,0.4-0.4v-0.2H66v1.4H65.4z"/>
		<path d="M65.2,92.1c0,0.2,0,0.5,0.1,0.7c0.1,0.2,0.3,0.3,0.6,0.3c0.4,0,0.7-0.3,0.7-0.8c0-0.3-0.1-0.5-0.2-0.7
			c0,0.3-0.2,0.4-0.4,0.4c-0.3,0-0.5-0.2-0.5-0.5c0,0,0,0,0,0c0-0.3,0.2-0.5,0.5-0.5c0,0,0,0,0.1,0c0.6,0,1,0.7,1,1.6
			s-0.4,1.6-1,1.6c-0.3,0-0.5-0.1-0.7-0.3c-0.1-0.2-0.2-0.4-0.3-0.7c0,0.3-0.1,0.5-0.3,0.8c-0.2,0.2-0.4,0.3-0.7,0.3
			c-0.8,0-1.2-0.7-1.2-1.8c0-0.9,0.5-1.6,1.1-1.6c0.3,0,0.6,0.2,0.6,0.5c0,0,0,0,0,0.1c0,0.3-0.2,0.5-0.5,0.5c0,0,0,0,0,0
			c-0.2,0-0.3-0.1-0.4-0.2c-0.1-0.1-0.1-0.2-0.1-0.4c-0.2,0.2-0.3,0.5-0.3,0.9c0,0.6,0.3,1,0.8,1c0.3,0,0.5-0.1,0.7-0.4
			c0.1-0.2,0.1-0.5,0.1-0.7L65.2,92.1z"/>
		<path d="M62.5,97.4v-2.1H63v0.2c0,0.3,0.1,0.4,0.4,0.4h1.4c0.3,0,0.4,0,0.4-0.4v-0.2h0.4v1.4h-0.5c0.3,0.1,0.6,0.5,0.6,0.8
			c0,0.4-0.3,0.8-0.7,0.8c0,0,0,0,0,0c-0.3,0-0.5-0.2-0.6-0.5c0,0,0,0,0,0c0-0.2,0.1-0.4,0.4-0.4c0,0,0,0,0,0c0.2,0,0.3,0.1,0.4,0.4
			c0-0.1,0.1-0.2,0.1-0.3c0-0.2-0.2-0.4-0.3-0.5c-0.3-0.1-0.5-0.2-0.8-0.2h-0.8c-0.3,0-0.4,0-0.4,0.4v0.3H62.5z"/>
		<path d="M67,100.6v1.5h-3.6c-0.3,0-0.4,0-0.4,0.4v0.2h-0.4v-1.4h0.5c-0.4-0.2-0.7-0.6-0.6-1c0-0.9,0.6-1.4,1.7-1.4
			s1.7,0.5,1.7,1.4c0,0.4-0.2,0.8-0.6,1h1c0.3,0,0.4,0,0.4-0.4v-0.3L67,100.6z M64.1,99.7c-0.8,0-1.1,0.2-1.1,0.7s0.4,0.8,1.1,0.8
			c0.7,0,1.1-0.3,1.1-0.8S64.8,99.7,64.1,99.7L64.1,99.7z"/>
		<path d="M62.8,109l3.6-2.2h-2.7c-0.4,0-0.4,0-0.4,0.4v0.3h-0.5v-2.2h0.5v0.3c0,0.4,0,0.4,0.4,0.4h2.6c0.4,0,0.4-0.1,0.4-0.4v-0.3
			h0.5v1.9l-3.2,2h2.3c0.4,0,0.4,0,0.4-0.4v-0.3h0.5v2.1h-0.5v-0.2c0-0.4,0-0.4-0.4-0.4h-3.5V109z"/>
		<path d="M64.9,114.8c-1,0-1.8-0.7-1.8-1.7c0-1,0.7-1.8,1.7-1.8s1.8,0.7,1.8,1.7c0,0,0,0,0,0.1c0.1,0.9-0.6,1.7-1.4,1.8
			C65.1,114.8,65,114.8,64.9,114.8z M64.9,112.1c-0.8,0-1.2,0.3-1.2,0.9s0.4,0.9,1.2,0.9s1.2-0.3,1.2-0.9S65.7,112.2,64.9,112.1
			L64.9,112.1z"/>
		<path d="M65.2,116.2c0.2-0.1,0.3-0.2,0.3-0.3v-0.2h0.4v1.7h-0.4v-0.1c0-0.2,0-0.3-0.2-0.3c-0.1,0-0.2,0-0.3,0.1l-1.4,0.5l1.5,0.5
			c0.1,0,0.1,0,0.2,0c0.1,0,0.2-0.1,0.2-0.3v-0.2h0.4v1.5h-0.4V119c0-0.2-0.1-0.3-0.4-0.4l-2.3-0.8V117L65.2,116.2z"/>
		<path d="M63.7,122.4c-0.4,0-0.7-0.2-0.9-0.5c-0.2-0.3-0.3-0.6-0.3-1c0-0.9,0.6-1.6,1.5-1.6c0.1,0,0.1,0,0.2,0
			c0.9-0.1,1.6,0.6,1.7,1.5c0,0.1,0,0.1,0,0.2c0,0.4-0.1,0.8-0.5,1.1c-0.4,0.3-0.8,0.4-1.3,0.3v-2.2c-0.3,0-0.6,0.1-0.8,0.2
			c-0.2,0.1-0.3,0.4-0.3,0.6c0,0.2,0.1,0.4,0.2,0.6c0.1,0.1,0.3,0.2,0.5,0.3L63.7,122.4z M64.5,121.6c0.6-0.1,0.8-0.2,0.8-0.6
			s-0.2-0.6-0.8-0.7V121.6z"/>
		<path d="M65.4,124.6c0.5,0.4,0.6,0.7,0.6,1.1c0,0.4-0.2,0.8-0.6,0.9c0.5,0.5,0.6,0.7,0.6,1.1c0,0.3-0.1,0.5-0.2,0.7
			c-0.2,0.2-0.3,0.2-0.9,0.2h-1.2c-0.3,0-0.4,0.1-0.4,0.4v0.2h-0.4v-1.8h0.4v0.1c0,0.3,0.1,0.4,0.4,0.4h1.2c0.3,0,0.4,0,0.5-0.1
			c0.1-0.1,0.2-0.2,0.2-0.4c0-0.4-0.4-0.8-0.8-0.8c0,0,0,0,0,0h-1c-0.3,0-0.4,0-0.4,0.4v0.1h-0.4v-1.7h0.4v0.1
			c0,0.3,0.1,0.4,0.4,0.4h1.2c0.3,0,0.4,0,0.5-0.1c0.1-0.1,0.2-0.2,0.2-0.4c0-0.4-0.4-0.8-0.8-0.8c0,0,0,0,0,0h-1
			c-0.3,0-0.4,0-0.4,0.4v0.1h-0.4v-1.8h0.4v0.2c0,0.3,0.1,0.4,0.4,0.4h1.4c0.3,0,0.4,0,0.4-0.4v-0.2H66v1.4L65.4,124.6z"/>
		<path d="M62.8,130.7v-0.4h3.6c0.3,0,0.4-0.1,0.4-0.4v-0.1h0.4v1.3h-1.8c0.4,0.2,0.6,0.6,0.6,1c0,0.9-0.6,1.4-1.7,1.4
			c-0.4,0-0.9-0.1-1.2-0.4c-0.3-0.2-0.5-0.6-0.5-1c0-0.4,0.2-0.8,0.5-1.1L62.8,130.7z M64.4,131.1c-0.7,0-1.1,0.3-1.1,0.8
			s0.4,0.7,1.1,0.7s1.1-0.2,1.1-0.7S65.1,131.1,64.4,131.1z"/>
		<path d="M63.4,137.2c-0.4,0-0.7-0.2-0.9-0.5c-0.2-0.3-0.3-0.6-0.3-1c0-0.9,0.6-1.6,1.5-1.6c0.1,0,0.1,0,0.2,0
			c0.9-0.1,1.6,0.6,1.7,1.4c0,0.1,0,0.1,0,0.2c0,0.4-0.1,0.8-0.5,1.1c-0.4,0.3-0.8,0.4-1.3,0.4V135c-0.3,0-0.6,0.1-0.8,0.2
			c-0.2,0.1-0.3,0.4-0.3,0.6c0,0.2,0,0.4,0.2,0.6c0.1,0.1,0.3,0.2,0.5,0.3L63.4,137.2z M64.2,136.4c0.6-0.1,0.8-0.2,0.8-0.6
			s-0.2-0.6-0.8-0.7V136.4z"/>
		<path d="M62.8,140.1V138h0.4v0.2c0,0.3,0.1,0.4,0.4,0.4h1.4c0.3,0,0.4,0,0.4-0.4V138h0.4v1.4h-0.5c0.3,0.2,0.5,0.5,0.6,0.9
			c0,0.4-0.3,0.7-0.7,0.8c0,0,0,0-0.1,0c-0.3,0-0.5-0.2-0.6-0.5c0,0,0,0,0-0.1c0-0.2,0.1-0.4,0.4-0.4c0,0,0,0,0,0
			c0.2,0,0.3,0.1,0.4,0.4c0-0.1,0.1-0.2,0.1-0.3c0-0.2-0.2-0.4-0.3-0.5c-0.2-0.1-0.5-0.2-0.8-0.2h-0.8c-0.3,0-0.4,0.1-0.4,0.4v0.3
			L62.8,140.1z"/>
		<path d="M63,144c1,0,1.5,0.3,2.1,1.6c0.1,0.2,0.2,0.4,0.4,0.6c0.1,0.1,0.3,0.2,0.5,0.1c0.4,0,0.8-0.4,0.8-0.8c0,0,0,0,0-0.1
			c0-0.2-0.1-0.4-0.2-0.6c-0.1-0.1-0.2-0.2-0.3-0.2c0,0.1,0,0.2,0,0.2c0,0.2-0.2,0.4-0.4,0.4c0,0,0,0,0,0c-0.3,0-0.5-0.2-0.5-0.5
			c0,0,0,0,0,0c0-0.4,0.3-0.6,0.7-0.6c0,0,0,0,0,0c0.3,0,0.6,0.2,0.8,0.4c0.3,0.3,0.4,0.7,0.4,1.1c0,0.5-0.1,0.9-0.4,1.3
			c-0.2,0.2-0.5,0.4-0.9,0.4c-0.3,0-0.5-0.1-0.7-0.2c-0.3-0.3-0.5-0.6-0.5-1c-0.2-0.9-0.4-1.2-0.8-1.5c0.1,0.2,0.2,0.3,0.2,0.5
			c0,0.3-0.1,0.6-0.1,0.9c0,0.2-0.1,0.4-0.1,0.5c0,0.2,0.1,0.3,0.2,0.4c0.2,0.1,0.4,0.1,0.6,0.1v0.4c-0.4,0-0.8,0-1.1-0.2
			c-0.3-0.2-0.4-0.5-0.4-0.8c0-0.3,0.1-0.5,0.2-0.8c0.1-0.2,0.2-0.4,0.3-0.5c0.1-0.1,0.1-0.2,0.1-0.4c0-0.2-0.1-0.3-0.5-0.4L63,144z
			"/>
		<path d="M64.6,152.2c-1-0.1-1.8-1.1-1.6-2.1c0.1-1,1.1-1.8,2.1-1.6c0.9,0.1,1.6,0.9,1.6,1.9c0,1.1-0.9,1.9-2,1.9
			C64.7,152.2,64.6,152.2,64.6,152.2z M64.6,149.5c-1.1,0-1.6,0.3-1.6,0.8s0.5,0.8,1.6,0.8c1.1,0,1.6-0.3,1.6-0.8
			S65.7,149.5,64.6,149.5L64.6,149.5z"/>
		<path d="M62.8,152.9c1,0,1.5,0.3,2,1.6c0.1,0.2,0.2,0.4,0.4,0.6c0.1,0.1,0.3,0.1,0.5,0.1c0.4,0,0.8-0.4,0.8-0.8c0,0,0-0.1,0-0.1
			c0-0.2-0.1-0.4-0.2-0.6c-0.1-0.1-0.2-0.2-0.3-0.2c0,0.1,0,0.2,0,0.2c0,0.2-0.2,0.4-0.4,0.4c0,0,0,0,0,0c-0.3,0-0.5-0.2-0.5-0.5
			c0,0,0,0,0-0.1c0-0.4,0.3-0.6,0.6-0.6c0,0,0,0,0,0c0.3,0,0.6,0.2,0.8,0.4c0.3,0.3,0.4,0.7,0.4,1.1c0,0.5-0.1,0.9-0.4,1.3
			c-0.2,0.2-0.6,0.4-0.9,0.4c-0.3,0-0.5-0.1-0.7-0.3c-0.3-0.3-0.4-0.6-0.5-1c-0.2-0.9-0.4-1.2-0.9-1.4c0.1,0.2,0.2,0.3,0.2,0.5
			c0,0.3-0.1,0.6-0.1,0.9c0,0.2-0.1,0.3-0.1,0.5c0,0.2,0.1,0.3,0.2,0.4c0.2,0.1,0.4,0.1,0.6,0.1v0.4c-0.4,0-0.8,0-1.1-0.2
			c-0.3-0.2-0.5-0.4-0.5-0.8c0-0.3,0.1-0.5,0.2-0.8c0-0.1,0-0.1,0.3-0.5c0.1-0.1,0.1-0.2,0.1-0.4c0-0.2-0.1-0.3-0.5-0.4L62.8,152.9z
			"/>
		<path d="M62.8,157.6v0.3c0,0.4,0,0.5,0.4,0.5h2.1v-0.8h0.5c0,0.7,0.2,0.9,0.6,1.2v0.5h-3.2c-0.3,0-0.4,0-0.4,0.5v0.3h-0.5v-2.5
			L62.8,157.6z"/>
		<path d="M54.8,71.5c0-0.8-0.3-1.1-1.3-1.1v-0.5h1.8v4.2h-1.8v-0.5c1,0,1.3-0.3,1.3-1.1h-3c-0.4,0-0.4,0.1-0.4,0.4v0.4h-0.5v-2.6
			h0.5v0.4c0,0.4,0,0.4,0.4,0.4H54.8z"/>
		<path d="M52.5,78.3c-1,0-1.8-0.7-1.8-1.7s0.7-1.8,1.7-1.8c1,0,1.8,0.7,1.8,1.7c0,0,0,0.1,0,0.1c0.1,0.9-0.6,1.7-1.5,1.8
			C52.7,78.3,52.6,78.3,52.5,78.3z M52.5,75.7c-0.8,0-1.2,0.3-1.2,0.9s0.4,0.9,1.2,0.9s1.2-0.3,1.2-0.9S53.3,75.7,52.5,75.7
			L52.5,75.7z"/>
		<path d="M53.4,82.5c0,0.2,0,0.5,0.1,0.7c0.1,0.2,0.3,0.3,0.5,0.3c0.4,0,0.7-0.3,0.7-0.8c0-0.3-0.1-0.5-0.2-0.7
			c0,0.3-0.2,0.4-0.4,0.4c-0.3,0-0.5-0.2-0.5-0.5c0,0,0,0,0,0c0-0.3,0.2-0.5,0.5-0.5c0,0,0,0,0.1,0c0.6,0,1,0.7,1,1.6
			s-0.4,1.6-1,1.6c-0.3,0-0.5-0.1-0.7-0.3c-0.1-0.2-0.2-0.4-0.3-0.7c0,0.3-0.1,0.6-0.3,0.8c-0.2,0.2-0.5,0.3-0.7,0.3
			c-0.8,0-1.2-0.7-1.2-1.8c0-0.9,0.5-1.6,1.1-1.6c0.3,0,0.6,0.2,0.6,0.5c0,0,0,0,0,0.1c0,0.3-0.2,0.5-0.5,0.5c0,0,0,0,0,0
			c-0.1,0-0.3-0.1-0.4-0.2c-0.1-0.1-0.1-0.2-0.1-0.4c-0.2,0.2-0.3,0.5-0.3,0.9c0,0.6,0.3,1,0.8,1c0.3,0,0.5-0.1,0.7-0.3
			c0.1-0.2,0.1-0.5,0.1-0.7L53.4,82.5z"/>
		<path d="M52.7,89.3c-1-0.1-1.8-1.1-1.6-2.1c0.1-1,1.1-1.8,2.1-1.6c0.9,0.1,1.6,0.9,1.6,1.9c0,1.1-0.9,1.9-2,1.9
			C52.8,89.3,52.8,89.3,52.7,89.3z M52.7,86.6c-1.1,0-1.6,0.3-1.6,0.8s0.5,0.8,1.6,0.8s1.6-0.3,1.6-0.8S53.8,86.6,52.7,86.6
			L52.7,86.6z"/>
		<path d="M53.9,90.4h0.4c0.1,0.6,0.4,0.8,1.2,0.9v0.4h-1.2v0.9h-0.5v-0.9h-1.8c-0.3,0-0.4,0.1-0.4,0.2c0,0.1,0.1,0.3,0.2,0.3
			c0,0,0,0,0,0c0.2,0,0.5,0,0.7,0v0.4h-0.2c-0.3,0-0.6,0-0.9-0.2c-0.3-0.2-0.5-0.5-0.4-0.8c0-0.3,0.1-0.5,0.3-0.7
			c0.2-0.1,0.5-0.2,0.8-0.2h1.7V90.4z"/>
		<path d="M55.3,93.2v1.3h-1.9c0.4,0.2,0.6,0.7,0.6,1.1c0,0.3-0.1,0.5-0.3,0.8c-0.3,0.2-0.6,0.3-0.9,0.2h-1.2c-0.3,0-0.4,0-0.4,0.4
			v0.2h-0.5v-1.9h0.5v0.1c0,0.3,0.1,0.4,0.4,0.4h1.2c0.3,0,0.4,0,0.5-0.1c0.1-0.1,0.2-0.2,0.2-0.4c0-0.2-0.1-0.5-0.3-0.6
			c-0.2-0.2-0.5-0.2-0.8-0.2h-0.8c-0.3,0-0.4,0-0.4,0.4v0.1h-0.5v-1.9h0.5v0.2c0,0.3,0.1,0.4,0.4,0.4h2.8c0.3,0,0.4,0,0.4-0.4v-0.2
			H55.3z"/>
		<path d="M55.4,101v2.3h-0.5v-0.2c0-0.4,0-0.4-0.4-0.4h-2.1c-0.6,0-0.9-0.1-1.2-0.3c-0.3-0.3-0.4-0.7-0.4-1.1
			c0-0.8,0.5-1.4,1.1-1.4c0.3,0,0.6,0.2,0.6,0.5c0,0,0,0.1,0,0.1c0,0.3-0.2,0.5-0.5,0.5c0,0,0,0-0.1,0c-0.3,0-0.5-0.2-0.5-0.4
			c-0.1,0.1-0.2,0.3-0.2,0.5c0,0.2,0.1,0.4,0.2,0.5c0.2,0.1,0.4,0.2,0.7,0.1h2.2c0.4,0,0.4-0.1,0.4-0.4V101H55.4z"/>
		<path d="M52.4,107.6c-0.3,0-0.6,0-0.8-0.1c-0.3-0.1-0.5-0.4-0.4-0.7c0-0.3,0.2-0.6,0.5-0.7c-0.3-0.2-0.5-0.6-0.5-1.1
			c-0.1-0.5,0.3-0.9,0.8-1c0,0,0.1,0,0.1,0c0.3,0,0.6,0.2,0.8,0.5c0.1,0.3,0.2,0.7,0.3,1c0.1,0.4,0.2,0.6,0.5,0.6s0.5-0.2,0.5-0.7
			c0-0.2-0.1-0.4-0.2-0.6c0,0.3-0.1,0.4-0.4,0.4c-0.2,0-0.4-0.2-0.4-0.4c0,0,0,0,0,0c0-0.3,0.2-0.5,0.5-0.5c0,0,0,0,0.1,0
			c0.5,0,0.8,0.5,0.8,1.3c0,0.3-0.1,0.7-0.2,1c-0.2,0.3-0.4,0.3-0.9,0.3h-1.4c-0.2,0-0.2,0-0.2,0.2s0.2,0.2,0.7,0.2h0.1V107.6z
			 M52.9,106c-0.1-0.1-0.1-0.2-0.2-0.3l-0.1-0.3c-0.1-0.2-0.3-0.4-0.5-0.4c-0.2,0-0.4,0.1-0.4,0.3c0,0,0,0.1,0,0.1
			c0,0.2,0.1,0.4,0.2,0.5c0.2,0.2,0.4,0.2,0.6,0.2H52.9z"/>
		<path d="M51.6,108.3v0.2c0,0.3,0.1,0.4,0.4,0.4h1.4c0.3,0,0.4-0.1,0.4-0.4v-0.2h0.5v1.4h-0.5c0.5,0.4,0.7,0.7,0.7,1.1
			c0,0.3-0.1,0.5-0.3,0.7c-0.2,0.2-0.4,0.2-0.9,0.2H52c-0.3,0-0.4,0-0.4,0.4v0.2h-0.5v-1.9h0.5v0.1c0,0.3,0.1,0.4,0.4,0.4h1.2
			c0.2,0,0.3,0,0.5-0.1c0.1-0.1,0.2-0.2,0.2-0.4c0-0.2-0.1-0.5-0.3-0.6c-0.2-0.2-0.5-0.2-0.7-0.2H52c-0.3,0-0.4,0-0.4,0.4v0.1h-0.5
			v-1.9L51.6,108.3z"/>
		<path d="M54.3,112.8v1.3h-2.1c-0.2,0-0.3,0-0.5,0.1c-0.1,0.1-0.2,0.2-0.2,0.4c0,0.2,0.1,0.5,0.3,0.6c0.2,0.1,0.5,0.2,0.7,0.2h0.8
			c0.3,0,0.4,0,0.4-0.4v-0.3h0.5v1.5h-2.3c-0.3,0-0.4,0-0.4,0.4v0.2h-0.5v-1.4h0.5c-0.4-0.2-0.6-0.7-0.7-1.1c0-0.3,0.1-0.5,0.3-0.7
			c0.2-0.2,0.4-0.2,0.9-0.2h1.2c0.3,0,0.4,0,0.4-0.4v-0.2H54.3z"/>
		<path d="M52.2,121.2c-0.3,0-0.6,0-0.8-0.1c-0.3-0.1-0.5-0.4-0.4-0.7c0-0.3,0.2-0.6,0.5-0.7c-0.3-0.2-0.5-0.6-0.5-1.1
			c-0.1-0.5,0.2-0.9,0.7-1c0.1,0,0.1,0,0.2,0c0.3,0,0.6,0.2,0.8,0.5c0.1,0.3,0.3,0.6,0.3,0.9c0.1,0.4,0.2,0.6,0.5,0.6
			s0.5-0.2,0.5-0.7c0-0.2-0.1-0.4-0.2-0.6c0,0.3-0.1,0.4-0.4,0.4c-0.2,0-0.4-0.2-0.4-0.4c0,0,0,0,0,0c0-0.3,0.2-0.5,0.5-0.5
			c0,0,0,0,0.1,0c0.5,0,0.8,0.5,0.8,1.3c0,0.3-0.1,0.7-0.2,1c-0.2,0.3-0.4,0.3-1,0.3h-1.4c-0.2,0-0.2,0-0.2,0.2s0.2,0.2,0.7,0.2h0.1
			L52.2,121.2z M52.6,119.6c-0.1-0.1-0.1-0.2-0.2-0.3l-0.1-0.3c-0.1-0.2-0.3-0.4-0.5-0.4c-0.2,0-0.4,0.1-0.4,0.3c0,0,0,0.1,0,0.1
			c0,0.2,0.1,0.4,0.2,0.5c0.2,0.2,0.4,0.2,0.6,0.2H52.6z"/>
		<path d="M51.1,124v-2.1h0.5v0.2c0,0.3,0.1,0.4,0.4,0.4h1.4c0.3,0,0.4,0,0.4-0.4v-0.2h0.5v1.4h-0.5c0.3,0.2,0.5,0.5,0.6,0.8
			c0,0.4-0.3,0.8-0.7,0.8c0,0,0,0,0,0c-0.3,0-0.5-0.2-0.5-0.5c0,0,0,0,0,0c0-0.2,0.1-0.4,0.3-0.4c0,0,0,0,0.1,0
			c0.2,0,0.3,0.1,0.5,0.4c0-0.1,0.1-0.2,0.1-0.3c0-0.2-0.2-0.4-0.3-0.5c-0.2-0.2-0.5-0.2-0.8-0.2H52c-0.3,0-0.4,0-0.4,0.4v0.4H51.1z
			"/>
		<path d="M54.3,126.3c0.3-0.1,0.4-0.2,0.4-0.5v-0.2h0.4v1.9h-0.4v-0.2c0-0.2-0.1-0.2-0.2-0.2c-0.1,0-0.1,0-0.2,0l-1.4,0.6l1.4,0.5
			c0.1,0,0.1,0,0.2,0.1c0.1,0,0.2-0.1,0.2-0.3v-0.2h0.4v1.6h-0.4v-0.1c0-0.2-0.1-0.3-0.5-0.5l-1.8-0.7c-1.4-0.6-1.8-0.9-1.8-1.5
			c0-0.5,0.3-0.9,0.8-0.9c0,0,0,0,0,0c0.3,0,0.6,0.2,0.6,0.5c0,0,0,0,0,0c0,0.2-0.2,0.4-0.4,0.5c0,0,0,0,0,0c-0.3,0-0.4-0.2-0.4-0.5
			c-0.1,0.1-0.2,0.2-0.2,0.3c0,0.4,0.2,0.6,1,0.9L54.3,126.3z"/>
		<path d="M51,132.1c1,0,1.5,0.3,2,1.6c0.1,0.2,0.2,0.4,0.4,0.6c0.1,0.1,0.3,0.2,0.5,0.2c0.4,0,0.8-0.4,0.8-0.8c0,0,0-0.1,0-0.1
			c0-0.2-0.1-0.4-0.2-0.6c-0.1-0.1-0.2-0.2-0.3-0.2c0,0.1,0,0.2,0,0.2c0,0.2-0.2,0.4-0.4,0.4c0,0,0,0,0,0c-0.3,0-0.5-0.2-0.5-0.5
			c0,0,0,0,0-0.1c0-0.4,0.3-0.6,0.7-0.6c0,0,0,0,0,0c0.3,0,0.6,0.2,0.8,0.4c0.3,0.3,0.4,0.7,0.4,1.1c0,0.5-0.1,0.9-0.4,1.3
			c-0.2,0.2-0.6,0.4-0.9,0.4c-0.3,0-0.5-0.1-0.7-0.2c-0.3-0.3-0.5-0.6-0.5-1c-0.2-0.9-0.4-1.2-0.8-1.5c0.1,0.2,0.2,0.3,0.2,0.5
			c0,0.3-0.1,0.6-0.1,0.9c-0.1,0.2-0.1,0.4-0.1,0.5c0,0.2,0.1,0.3,0.2,0.4c0.2,0.1,0.4,0.1,0.6,0.1v0.4c-0.4,0-0.8,0-1.1-0.2
			c-0.3-0.2-0.5-0.5-0.5-0.8c0-0.3,0.1-0.5,0.2-0.8l0.3-0.5c0.1-0.1,0.1-0.2,0.1-0.4c0-0.2-0.1-0.3-0.5-0.4L51,132.1z"/>
		<path d="M53.5,140.3c-1-0.1-1.8-1.1-1.6-2.1s1.1-1.8,2.1-1.6c0.9,0.1,1.6,0.9,1.6,1.9c0,1.1-0.9,1.9-2,1.9
			C53.6,140.3,53.6,140.3,53.5,140.3z M53.5,137.6c-1.1,0-1.6,0.2-1.6,0.8s0.5,0.8,1.6,0.8s1.6-0.3,1.6-0.8S54.6,137.6,53.5,137.6
			L53.5,137.6z"/>
		<path d="M51,141.2c1,0,1.5,0.3,2,1.6c0.1,0.2,0.2,0.4,0.4,0.6c0.1,0.1,0.3,0.2,0.5,0.2c0.4,0,0.8-0.4,0.8-0.8c0,0,0-0.1,0-0.1
			c0-0.2-0.1-0.4-0.2-0.6c-0.1-0.1-0.2-0.2-0.3-0.2c0,0.1,0,0.2,0,0.2c0,0.2-0.2,0.4-0.4,0.4c0,0,0,0,0,0c-0.3,0-0.5-0.2-0.5-0.5
			c0,0,0,0,0-0.1c0-0.4,0.3-0.6,0.7-0.6c0,0,0,0,0,0c0.3,0,0.6,0.2,0.8,0.4c0.3,0.3,0.4,0.7,0.4,1.1c0,0.5-0.1,0.9-0.4,1.3
			c-0.2,0.2-0.6,0.4-0.9,0.4c-0.3,0-0.5-0.1-0.7-0.2c-0.3-0.3-0.5-0.6-0.5-1c-0.2-0.9-0.4-1.2-0.8-1.5c0.1,0.2,0.2,0.3,0.2,0.5
			c0,0.3-0.1,0.6-0.1,0.9c-0.1,0.2-0.1,0.4-0.1,0.5c0,0.2,0.1,0.3,0.2,0.4c0.2,0.1,0.4,0.1,0.6,0.1v0.4c-0.4,0-0.8,0-1.1-0.2
			c-0.3-0.2-0.5-0.5-0.5-0.8c0-0.3,0.1-0.5,0.2-0.8c0.1-0.2,0.2-0.4,0.3-0.5c0.1-0.1,0.1-0.2,0.1-0.4c0-0.2-0.1-0.3-0.5-0.4
			L51,141.2z"/>
		<path d="M51.5,145.4c1,0,1.5,0.3,2,1.6c0.1,0.2,0.2,0.4,0.4,0.6c0.1,0.1,0.3,0.2,0.5,0.1c0.4,0,0.8-0.4,0.8-0.8c0,0,0-0.1,0-0.1
			c0-0.4-0.2-0.7-0.5-0.8c0,0.1,0,0.2,0,0.2c0,0.2-0.2,0.4-0.4,0.4c0,0,0,0,0,0c-0.3,0-0.5-0.2-0.5-0.5c0,0,0,0,0-0.1
			c0-0.4,0.3-0.6,0.7-0.6c0,0,0,0,0,0c0.3,0,0.6,0.2,0.8,0.4c0.3,0.3,0.4,0.7,0.4,1.1c0,0.5-0.1,0.9-0.4,1.3
			c-0.2,0.2-0.5,0.4-0.9,0.4c-0.3,0-0.5-0.1-0.7-0.2c-0.3-0.3-0.5-0.6-0.5-1c-0.2-0.9-0.4-1.2-0.8-1.5c0.1,0.2,0.2,0.3,0.2,0.5
			c0,0.1-0.1,0.6-0.1,0.9c0,0.2-0.1,0.3-0.1,0.5c0,0.2,0.1,0.3,0.2,0.4c0.1,0.1,0.2,0.1,0.6,0.1v0.4c-0.4,0-0.8,0-1.1-0.2
			c-0.3-0.2-0.4-0.5-0.4-0.8c0-0.3,0.1-0.5,0.2-0.8c0.1-0.2,0.2-0.4,0.3-0.5c0.1-0.1,0.1-0.2,0.1-0.4c0-0.2-0.1-0.3-0.5-0.4
			L51.5,145.4z"/>
		<path d="M109.9,90.2v-2c0,0,0-0.1,0-0.1l8.4-10.4c0.7-0.8,1.1-1.9,1.1-3c0.2-1.7-1.1-3.2-2.8-3.4c-0.2,0-0.4,0-0.6,0
			c-1.8,0-3.5,1-3.5,3.6c0,0.1,0,0.1-0.1,0.1c0,0,0,0,0,0H110c-0.1,0-0.1-0.1-0.1-0.1c0,0,0,0,0,0c-0.1-3.2,2.4-5.8,5.6-5.9
			c0.2,0,0.3,0,0.5,0c2-0.1,3.9,0.8,5.1,2.4c0.7,0.9,1,2.1,1,3.2c0,1.6-0.7,3.2-1.8,4.4l-7.1,8.8h9c0.1,0,0.1,0,0.1,0.1c0,0,0,0,0,0
			v2.1c0,0.1-0.1,0.1-0.1,0.1H110C109.9,90.4,109.9,90.3,109.9,90.2C109.9,90.2,109.9,90.2,109.9,90.2z"/>
		<path d="M120.6,116.8c-2.5,2.4-6.5,2.4-9,0c-2.1-2.1-2.5-5-2.5-9s0.4-7,2.5-9.1c2.6-2.3,6.4-2.3,9,0c2.1,2.1,2.5,5.1,2.5,9.1
			S122.7,114.7,120.6,116.8z M118.7,100.3c-1.5-1.3-3.7-1.3-5.2,0c-1.8,1.7-1.7,4.7-1.7,7.5s-0.1,5.8,1.7,7.5c1.5,1.3,3.7,1.3,5.2,0
			c1.8-1.7,1.7-4.7,1.7-7.5S120.5,102,118.7,100.3z"/>
		<path d="M109.9,146.3v-2c0,0,0-0.1,0-0.1l8.4-10.4c0.7-0.8,1.1-1.9,1.1-3c0.2-1.7-1.1-3.2-2.8-3.4c-0.2,0-0.4,0-0.7,0
			c-1.8,0-3.5,1-3.5,3.6c0,0.1-0.1,0.1-0.1,0.1l0,0H110c-0.1,0-0.1-0.1-0.1-0.1c0,0,0,0,0,0c-0.1-3.2,2.4-5.8,5.6-5.9
			c0.2,0,0.4,0,0.6,0c2-0.1,3.9,0.8,5.1,2.4c0.7,0.9,1,2.1,1,3.2c0,1.6-0.7,3.2-1.8,4.4l-7.1,8.8h9c0.1,0,0.1,0,0.1,0.1c0,0,0,0,0,0
			v2.1c0,0.1-0.1,0.1-0.1,0.1c0,0,0,0,0,0H110C109.9,146.5,109.9,146.4,109.9,146.3z"/>
		<path d="M109.9,175.4v-2c0,0,0-0.1,0-0.1l8.4-10.4c0.7-0.8,1.1-1.9,1.1-3c0.2-1.7-1.1-3.2-2.8-3.4c-0.2,0-0.4,0-0.7,0
			c-1.8,0-3.5,1-3.5,3.6c0,0.1-0.1,0.1-0.1,0.1l0,0H110c-0.1,0-0.1-0.1-0.1-0.1c0,0,0,0,0,0c-0.1-3.2,2.4-5.8,5.6-5.9
			c0.2,0,0.4,0,0.6,0c2-0.1,3.9,0.8,5.1,2.4c0.7,0.9,1,2.1,1,3.2c0,1.6-0.7,3.2-1.8,4.4l-7.1,8.8h9c0.1,0,0.1,0,0.1,0.1c0,0,0,0,0,0
			v2.1c0,0.1-0.1,0.1-0.1,0.1c0,0,0,0,0,0H110C109.9,175.5,109.9,175.4,109.9,175.4z"/>
		<path d="M175.6,78.6c-2.1,0-2.8,0-2.9,0s-0.2,0-0.2-0.3v-1.7c0-0.2,0-0.3,0.2-0.3s0.8,0,2.9,0h3.1c0.4-1,0.8-2.1,1.1-3.2
			c0-0.1,0.1-0.1,0.2-0.1c0.7,0.1,1.3,0.3,1.9,0.5c0.2,0.1,0.3,0.2,0.3,0.3c0,0.1-0.1,0.3-0.2,0.4c-0.2,0.2-0.3,0.3-0.4,0.6
			c-0.3,0.6-0.5,1-0.8,1.6c1.7,0,2.4,0,2.6,0s0.3,0,0.3,0.3v1.7c0,0.2,0,0.3-0.3,0.3s-0.9,0-3,0h-1.1c0,0.4,0,0.9,0,1.3v0.4h0.8
			c2,0,2.7,0,2.9,0s0.3,0,0.3,0.3v1.7c0,0.2,0,0.3-0.3,0.3s-0.8,0-2.9,0H180c0.8,0.9,1.8,1.7,2.9,2.3c0.1,0,0.1,0.1,0,0.2
			c0,0,0,0,0,0c-0.3,0.4-0.6,0.9-0.8,1.4c-0.1,0.2-0.2,0.4-0.3,0.4s-0.3-0.1-0.5-0.3c-0.8-0.7-1.5-1.6-2.1-2.5
			c0,3.3,0.1,5.2,0.1,6.1c0,0.2,0,0.3-0.3,0.3h-1.9c-0.1,0-0.3-0.1-0.3-0.3c0-0.8,0.1-2.5,0.1-5.5c-0.9,1.4-1.9,2.7-3.1,3.9
			c-0.2,0.2-0.4,0.3-0.5,0.3s-0.3-0.2-0.4-0.5c-0.2-0.5-0.5-1-0.9-1.5c0,0-0.1-0.1,0-0.2c0,0,0,0,0,0c1.6-1.1,3-2.5,4.1-4.2h-0.6
			c-2.1,0-2.8,0-2.9,0s-0.3,0-0.3-0.3v-1.7c0-0.2,0-0.3,0.3-0.3s0.8,0,2.9,0h1.3V80c0-0.6,0-1,0-1.3L175.6,78.6z M176,72.9
			c-2,0-2.7,0-2.8,0s-0.3,0-0.3-0.3V71c0-0.2,0-0.3,0.3-0.3s0.8,0,2.8,0h0.9v-0.7c0-0.5,0-0.9-0.1-1.4c0-0.1,0-0.2,0.1-0.2
			c0,0,0,0,0,0c0.8,0,1.5,0,2.3,0.1c0.2,0,0.4,0.1,0.4,0.2c0,0.1-0.1,0.3-0.1,0.4c-0.1,0.3-0.2,0.6-0.1,0.9v0.6h0.8c2,0,2.7,0,2.8,0
			s0.3,0,0.3,0.3v1.7c0,0.2,0,0.3-0.3,0.3s-0.8,0-2.8,0L176,72.9z M175.6,76.3c-0.3,0.1-0.4,0.1-0.5-0.2c-0.1-0.7-0.4-1.4-0.7-2.1
			c-0.1-0.3-0.1-0.3,0.2-0.4l1.2-0.4c0.3-0.1,0.3,0,0.4,0.2c0.4,0.7,0.7,1.4,0.9,2.2c0.1,0.2,0,0.3-0.2,0.4L175.6,76.3z M186.8,78.5
			c0.1,2.3-0.2,4.7-0.6,6.9c-0.4,1.6-1.1,3.2-2.1,4.5c-0.2,0.3-0.3,0.4-0.5,0.4s-0.3-0.1-0.5-0.3c-0.5-0.4-1-0.8-1.6-1
			c1.2-1.4,2.1-3,2.5-4.8c0.4-2.3,0.6-4.6,0.5-6.9v-2.6c0-1.3,0-2.6-0.1-3.9c0-0.1,0.1-0.1,0.1-0.2c0,0,0,0,0,0
			c0.7,0.1,1.4,0.3,2,0.5c1.4-0.4,2.8-0.9,4.1-1.7c0.4-0.2,0.8-0.5,1.2-0.8c0.1,0,0.1,0,0.2,0c0.5,0.5,1,1,1.5,1.6
			c0.1,0.1,0.2,0.3,0.2,0.5c0,0.1-0.1,0.3-0.4,0.3c-0.3,0-0.6,0.1-0.9,0.3c-1.8,0.9-3.6,1.5-5.6,2v2.9h4.1c2.3,0,3.1,0,3.3,0
			s0.3,0,0.3,0.3v1.8c0,0.2,0,0.3-0.3,0.3h-2.4V87c0,2.2,0.1,3.2,0.1,3.3s0,0.3-0.2,0.3h-2c-0.2,0-0.3,0-0.3-0.3s0-1.1,0-3.3v-8.5
			L186.8,78.5z"/>
		<path d="M190.1,99.1c2.2,0,3,0,3.1,0s0.3,0,0.3,0.3s-0.1,0.5-0.1,1.1v0.9c0,2.1,0.1,2.4,0.1,2.5c0,0.1-0.1,0.3-0.3,0.2h-2
			c-0.1,0-0.3-0.1-0.3-0.3l0,0V101h-15.4v2.8c0,0.2,0,0.3-0.3,0.3h-1.9c-0.1,0-0.3-0.1-0.3-0.3c0-0.2,0-0.5,0-2.5v-0.7
			c0-0.8,0-1.1,0-1.3s0-0.3,0.3-0.3s1,0,3.1,0h5.4c0-0.6,0-1.1-0.1-1.7c0-0.1,0-0.1,0.1-0.2c0,0,0,0,0,0c0.8,0,1.6,0.1,2.4,0.1
			c0.2,0,0.4,0.2,0.4,0.3s-0.1,0.3-0.1,0.4c-0.1,0.3-0.1,0.7-0.1,1L190.1,99.1z M174.5,119.5c-0.1,0-0.3-0.1-0.3-0.2
			c0-0.1,0-0.7,0-4.1v-1.8c0-1.9,0-2.5,0-2.7s0-0.3,0.3-0.3s1,0.1,3.3,0.1h10.9c2.3,0,3.1-0.1,3.3-0.1s0.3,0,0.3,0.3
			s-0.1,0.8-0.1,2.3v2.2c0,3.3,0.1,3.9,0.1,4s0,0.3-0.3,0.3h-1.9c-0.2,0-0.3,0-0.3-0.3v-0.7h-13.1v0.8c0,0.2,0,0.3-0.3,0.3H174.5z
			 M179.8,104c-2.2,0-3,0-3.1,0s-0.3,0-0.3-0.3v-1.3c0-0.2,0-0.3,0.3-0.3s0.9,0,3.1,0h6.9c2.2,0,3,0,3.1,0s0.3,0,0.3,0.3v1.3
			c0,0.3,0,0.3-0.3,0.3s-0.9,0-3.1,0H179.8z M186.4,105c2.2,0,3,0,3.1,0s0.3,0,0.3,0.3s-0.1,0.5-0.1,1.4v1.2c0,0.9,0.1,1.2,0.1,1.4
			s0,0.3-0.3,0.3s-0.9,0-3.1,0H180c-2.2,0-3,0-3.2,0s-0.3,0-0.3-0.3s0-0.5,0-1.4v-1.2c0-0.9,0-1.2,0-1.4s0-0.3,0.3-0.3s0.9,0,3.2,0
			H186.4z M176.7,113.5h5.3v-1.4h-5.3L176.7,113.5z M182,116.7v-1.4h-5.3v1.4H182z M187.3,106.5h-8.2v1.2h8.2V106.5z M184.3,112.2
			v1.4h5.5v-1.4H184.3z M189.8,116.7v-1.4h-5.5v1.4H189.8z"/>
		<path d="M144.5,71.1c0-0.7,0-1.5-0.1-2.2c0-0.1,0-0.1,0.1-0.2c0,0,0,0,0,0c0.9,0,1.6,0.1,2.2,0.1c0.3,0,0.4,0.1,0.4,0.3
			s0,0.2-0.2,0.4c-0.1,0.5-0.2,1-0.1,1.5h4.4c0-0.7,0-1.5-0.1-2.2c0-0.1,0-0.1,0.1-0.1c0,0,0,0,0,0c0.9,0,1.5,0.1,2.2,0.2
			c0.2,0,0.4,0.1,0.4,0.3s0,0.2-0.1,0.4c-0.1,0.5-0.2,1-0.1,1.5v0.1h2.9c2.2,0,2.9-0.1,3-0.1s0.3,0,0.3,0.3v1.8c0,0.3,0,0.3-0.3,0.3
			s-0.9,0-3,0h-2.9c0,1,0.1,1.5,0.1,1.6s0,0.3-0.3,0.3h-1.9c-0.2,0-0.3,0-0.3-0.3s0-0.6,0-1.6h-4.4c0,1,0,1.5,0,1.6s0,0.3-0.3,0.3
			h-1.9c-0.2,0-0.3,0-0.3-0.3s0-0.6,0.1-1.6h-2.7c-2.1,0-2.9,0-3,0s-0.3,0-0.3-0.3v-1.8c0-0.2,0-0.3,0.3-0.3s0.9,0.1,3,0.1H144.5z
			 M142,83.1c-2.1,0-2.9,0-3,0s-0.3,0-0.3-0.3V81c0-0.2,0-0.2,0.3-0.2s0.9,0,3,0h14.6c2.1,0,2.9,0,3,0s0.3,0,0.3,0.2v1.9
			c0,0.2,0,0.3-0.3,0.3s-0.9,0-3,0h-8.6c-0.6,1.3-1.1,2.7-1.8,3.9c2.6-0.1,5.2-0.4,7.4-0.6c-0.5-0.5-0.9-1.1-1.4-1.6
			c-0.2-0.2-0.2-0.3,0.1-0.4l1.3-0.8c0.3-0.1,0.4-0.1,0.6,0c1.7,1.6,3.2,3.4,4.5,5.3c0.1,0.2,0.1,0.3-0.1,0.5l-1.5,1
			c-0.1,0.1-0.2,0.1-0.3,0.1c-0.1,0-0.1-0.1-0.2-0.2c-0.4-0.7-0.9-1.4-1.4-2.1c-3.9,0.6-8.8,1.1-13.2,1.4c-0.3,0-0.6,0.1-0.9,0.2
			c-0.1,0.1-0.3,0.2-0.5,0.2c-0.2,0-0.3-0.2-0.4-0.4c-0.2-0.8-0.4-1.6-0.5-2.4c0-0.1,0.1-0.1,0.1-0.1c0,0,0,0,0,0c0.9,0,1.6,0,2.4,0
			c0.4,0,0.8,0,1.1,0c0.7-1.3,1.4-2.7,1.9-4.1L142,83.1z M144.5,78.7c-2.3,0-3.1,0-3.3,0s-0.3,0-0.3-0.2v-1.8c0-0.2,0-0.3,0.3-0.3
			s1,0,3.3,0h9.2c2.3,0,3.1,0,3.3,0s0.3,0,0.3,0.3v1.8c0,0.2,0,0.2-0.3,0.2s-1,0-3.3,0L144.5,78.7z"/>
		<path d="M147.8,100.7c0-1,0-2-0.2-3c0-0.1,0-0.2,0.1-0.2c0,0,0,0,0,0c0.8,0,1.6,0,2.3,0.1c0.2,0,0.4,0.2,0.4,0.3
			c0,0.2-0.1,0.3-0.1,0.5c-0.1,0.7-0.2,1.5-0.1,2.2v1.8h0.4c1.9,0,2.4-0.1,2.5-0.1s0.3,0,0.3,0.3v1.5c0-0.1,0.1-0.1,0.2-0.1
			s0.6,0.1,2,0.1h2.3c1.9,0,2-0.1,2.1,0c0.1,0.1,0.2,0.2,0.2,0.3v1.7c0,0.3,0,0.3-0.3,0.3s-0.5,0-1.8,0v5c0,2.6,0.1,3.7,0.1,4.7
			c0.1,0.9-0.2,1.7-0.8,2.3c-0.5,0.4-1.3,0.5-3.1,0.5c-0.7,0-0.7,0-0.9-0.8c-0.1-0.5-0.2-1-0.4-1.5c0-0.1,0-0.1,0.1-0.2
			c0,0,0,0,0.1,0c0.6,0.1,1.2,0.1,1.8,0.1c0.7,0,0.9-0.2,0.9-0.9v-9.3h-0.2c-1.5,0-1.9,0-2,0s-0.3,0-0.3-0.3v-1.5
			c-0.1,0-0.2,0-0.2,0c-0.1,0-0.7,0-2.5,0h-0.4v10c0,2.7,0,4.1,0,4.3s0,0.3-0.2,0.3h-2c-0.2,0-0.2,0-0.2-0.3s0.1-1.5,0.1-4.3v-10
			h-0.4c-1.8,0-2.4,0-2.6,0s-0.3,0-0.3-0.3c-0.1,0.1-0.1,0.1-0.2,0.2c-0.3,0.2-0.5,0.5-0.6,0.8c-0.3,0.6-0.7,1.1-1.1,1.7v9
			c0,1.9,0,2.8,0,2.9s0,0.3-0.3,0.3h-1.9c-0.2,0-0.3,0-0.3-0.3s0.1-1,0.1-2.9v-3.5c0-0.8,0-1.8,0-2.7c-0.4,0.4-0.8,0.8-1.2,1.1
			c-0.1,0.1-0.3,0.2-0.4,0.2c-0.1,0-0.2-0.1-0.3-0.4c-0.1-0.6-0.3-1.2-0.6-1.7c0,0,0-0.1,0-0.2c1.6-1.4,3-3,4.1-4.9
			c0.2-0.4,0.4-0.7,0.5-1.1c0-0.1,0.1-0.1,0.2-0.1c0,0,0,0,0,0c0.6,0.3,1.1,0.7,1.6,1.1c0.1,0.1,0.2,0.2,0.3,0.3v-1.5
			c0-0.2,0-0.3,0.3-0.3s0.7,0.1,2.6,0.1h0.4L147.8,100.7z M144.4,98.4c0.2,0.2,0.3,0.3,0.3,0.5c0,0.1-0.1,0.3-0.2,0.3
			c-0.3,0.2-0.5,0.4-0.7,0.7c-1.2,1.5-2.5,2.8-4.1,4c-0.3,0.2-0.4,0.3-0.6,0.3s-0.2-0.2-0.4-0.6c-0.2-0.6-0.5-1.1-0.8-1.5
			c-0.1,0-0.1-0.1,0-0.2c0,0,0,0,0,0c1.5-0.9,2.7-2.1,3.8-3.5c0.2-0.3,0.4-0.6,0.6-1c0-0.1,0.1-0.1,0.2-0.1
			C143.2,97.6,143.8,98,144.4,98.4z M144.7,108.8c0-0.6,0-1.1,0-1.7c0-0.1,0-0.1,0.1-0.1c0,0,0,0,0,0c0.7,0.1,1.3,0.2,2,0.3
			c0.3,0,0.4,0.2,0.4,0.4c0,0.1-0.1,0.3-0.2,0.4c-0.2,0.3-0.2,0.6-0.2,0.9c-0.2,2.1-0.6,4.2-1.2,6.2c-0.1,0.3-0.2,0.5-0.3,0.5
			c-0.2,0-0.3-0.1-0.5-0.2c-0.4-0.2-0.9-0.3-1.4-0.4c-0.1,0-0.1-0.1-0.1-0.2c0,0,0,0,0,0C144,112.9,144.5,110.9,144.7,108.8z
			 M151.7,98.2c0.2-0.2,0.3-0.2,0.4,0c0.5,0.7,1,1.4,1.5,2.2c0.1,0.2,0.1,0.3-0.2,0.4l-1,0.7c-0.1,0.1-0.2,0.2-0.3,0.2
			s-0.1-0.1-0.2-0.2c-0.4-0.8-0.9-1.6-1.4-2.3c-0.1-0.2-0.1-0.3,0.1-0.4L151.7,98.2z M152.3,106.9c0.2-0.1,0.3-0.1,0.4,0.2
			c0.7,2.1,1.1,4.2,1.4,6.4c0,0.2,0,0.3-0.3,0.4l-1.4,0.5c-0.3,0.1-0.4,0.1-0.4-0.1c-0.2-2.2-0.6-4.4-1.2-6.6
			c-0.1-0.2,0-0.3,0.3-0.4L152.3,106.9z M157.7,98.9c1.3,0,1.7-0.1,1.9-0.1s0.2,0,0.2,0.3v1.8c0,0.2,0,0.3-0.2,0.3s-0.5,0-1.9,0
			h-1.6c-1.3,0-1.7,0-1.9,0c-0.2,0-0.3-0.1-0.3-0.3c0,0,0,0,0,0v-1.7c0-0.2,0.1-0.3,0.3-0.3c0.2,0,0.6,0.1,1.9,0.1L157.7,98.9z"/>
		<path d="M156.8,127.6c0.2,0,0.4,0,0.6-0.1c0.1-0.1,0.2-0.1,0.3-0.1c0.2,0,0.5,0.1,1,0.7c0.5,0.6,0.7,0.7,0.7,0.9s-0.1,0.3-0.3,0.4
			c-0.3,0.3-0.6,0.7-0.8,1.1c-0.8,1.1-1.7,2.2-2.6,3.2c1.4,1.2,3,2.1,4.7,2.7c0.1,0,0.1,0.1,0.1,0.2c0,0,0,0,0,0
			c-0.3,0.5-0.6,1-0.8,1.5c-0.1,0.4-0.2,0.6-0.4,0.6c-0.2,0-0.4-0.1-0.5-0.2c-1.9-0.9-3.7-2.1-5.1-3.6v1.7c0,0.2,0,0.3-0.3,0.3
			s-0.7,0-2.4,0h-3.3c-1.7,0-2.3,0-2.4,0s-0.3,0-0.3-0.3v-1c-1.6,1.3-3.3,2.5-5.2,3.3c-0.2,0.1-0.4,0.2-0.6,0.2
			c-0.2,0-0.2-0.2-0.4-0.6c-0.2-0.4-0.5-0.8-0.8-1.2c0-0.1,0-0.1,0-0.2c0,0,0,0,0,0c1.2-0.5,2.4-1.1,3.5-1.8c-0.4-0.5-0.8-1-1.3-1.4
			c-0.2-0.2-0.2-0.2,0.1-0.4l0.9-0.6c0.1-0.1,0.2-0.1,0.2-0.1s0.1,0,0.2,0.1c0.5,0.4,1,0.8,1.4,1.3c0.4-0.3,0.8-0.6,1.1-1
			c-0.4-0.5-0.9-0.9-1.3-1.3c-0.2-0.1-0.2-0.2,0.1-0.4l0.8-0.6c0.2-0.2,0.3-0.2,0.5,0c0.4,0.3,0.8,0.7,1.2,1.1
			c0.5-0.7,1-1.4,1.4-2.1h-3c-1.1,1.4-2.4,2.6-3.9,3.7c-0.3,0.2-0.4,0.3-0.6,0.3s-0.2-0.2-0.4-0.5c-0.2-0.4-0.5-0.7-0.8-1
			c-0.1,0-0.1-0.1,0-0.2c0,0,0,0,0,0c1.9-1.2,3.6-2.8,4.8-4.7c0.3-0.4,0.5-0.9,0.6-1.4c0-0.1,0.1-0.1,0.1-0.1
			c0.7,0.1,1.4,0.3,1.9,0.4c0.2,0.1,0.3,0.2,0.3,0.3s-0.1,0.2-0.3,0.3c-0.2,0.3-0.4,0.6-0.6,0.9h2c0.2,0,0.4,0,0.6-0.1
			c0.1,0,0.2-0.1,0.3-0.1c0.2,0,0.4,0.1,0.9,0.7c0.1,0.1,0.3,0.3,0.4,0.4c-0.2-0.5-0.4-1.1-0.6-1.7c-0.1-0.2-0.1-0.3,0.2-0.4
			l1.6-0.4c0.3-0.1,0.3,0,0.4,0.2c0.6,2.1,1.6,4,3,5.6c0.8-0.8,1.5-1.7,2.1-2.6H155c-1.5,0-1.9,0-2.1,0s-0.3,0-0.3-0.3v-1.5
			c0-0.3,0-0.3,0.3-0.3s0.6,0,2.1,0L156.8,127.6z M145.6,142.7c0.2,0.1,0.3,0.2,0.3,0.4s-0.1,0.3-0.3,0.4c-0.2,0.1-0.4,0.3-0.6,0.5
			c-1.1,1.2-2.4,2.2-3.8,2.9c-0.2,0.1-0.3,0.2-0.5,0.2c-0.5-0.5-1-1.1-1.5-1.7c0-0.1,0-0.1,0-0.2c0,0,0,0,0,0
			c1.4-0.6,2.6-1.4,3.6-2.4c0.3-0.3,0.5-0.6,0.7-1c0-0.1,0.1-0.1,0.2-0.1C144.3,142,144.9,142.4,145.6,142.7z M144,141
			c-2.4,0-3.1,0-3.3,0s-0.3,0-0.3-0.3v-1.6c0-0.2,0-0.3,0.3-0.3s0.9,0,3.3,0h10.8c2.4,0,3.1,0,3.3,0s0.3,0,0.3,0.3v1.7
			c0,0.2,0,0.3-0.3,0.3s-0.9,0-3.3,0h-4.2v1.9c0,1,0.1,1.9,0.1,2.8c0.1,0.7-0.2,1.4-0.8,1.8c-0.5,0.3-1.3,0.4-3.3,0.4
			c-0.7,0-0.8,0-0.9-0.6c-0.1-0.6-0.2-1.1-0.5-1.6c0-0.1,0-0.1,0.1-0.2c0,0,0,0,0.1,0c0.6,0.1,1.2,0.1,1.8,0.1
			c0.8,0,0.9-0.2,0.9-0.8V141H144z M150.9,134.9c1.7,0,2.2,0,2.4,0c-1.5-1.6-2.7-3.4-3.6-5.5c0,0.1-0.1,0.3-0.3,0.3
			c-0.4,0.5-0.7,1.1-1,1.6c-0.7,1.3-1.6,2.5-2.6,3.5c0.4,0,0.9,0,1.8,0L150.9,134.9z M154.4,141.8c0.1-0.1,0.2-0.1,0.3-0.1
			c0.1,0,0.1,0,0.2,0.1c1.3,1.4,2.9,2.5,4.7,3.2c0.1,0,0.1,0.1,0,0.2c0,0,0,0,0,0c-0.4,0.4-0.7,0.9-1,1.4c-0.2,0.4-0.3,0.5-0.5,0.5
			c-0.2,0-0.4-0.1-0.5-0.2c-1.8-1-3.4-2.3-4.6-3.9c-0.1-0.2-0.1-0.2,0.1-0.4L154.4,141.8z"/>
		<circle class="st0" cx="82.2" cy="111.8" r="8.8"/>
		<circle class="st0" cx="137.3" cy="84.2" r="8.8"/>
		<circle class="st0" cx="173.6" cy="107.5" r="8.8"/>
		<circle class="st0" cx="89.1" cy="179.1" r="8.8"/>
		<circle class="st0" cx="127.3" cy="88.4" r="8.8"/>
		<circle class="st0" cx="46.6" cy="29.5" r="8.8"/>
		<circle class="st0" cx="169.7" cy="68.2" r="8.8"/>
		<circle class="st0" cx="164.4" cy="134.6" r="8.8"/>
		<circle class="st0" cx="154.3" cy="203" r="8.8"/>
		<circle class="st0" cx="210" cy="129.8" r="8.8"/>
		<circle class="st0" cx="114.5" cy="62.4" r="8.8"/>
		<circle class="st0" cx="37.1" cy="60.8" r="8.8"/>
		<circle class="st0" cx="71.6" cy="174.4" r="8.8"/>
		<circle class="st0" cx="46.6" cy="203" r="8.8"/>
		<circle class="st0" cx="69.4" cy="8.8" r="8.8"/>
		<circle class="st0" cx="230.9" cy="44.9" r="8.8"/>
		<circle class="st0" cx="236.2" cy="181.3" r="8.8"/>
		<circle class="st0" cx="160.1" cy="236.3" r="8.8"/>
		<circle class="st0" cx="132" cy="142" r="8.8"/>
		<circle class="st0" cx="70.5" cy="89.5" r="8.8"/>
		<circle class="st0" cx="8.8" cy="136.9" r="8.8"/>
	</g>
</g>
</svg>
